<?xml version="1.0" encoding="utf-8"?>
<!-- Generator: Adobe Illustrator 25.0.0, SVG Export Plug-In . SVG Version: 6.00 Build 0)  -->
<svg version="1.1" id="圖層_1" xmlns="http://www.w3.org/2000/svg" xmlns:xlink="http://www.w3.org/1999/xlink" x="0px" y="0px"
	 viewBox="0 0 60 60" style="enable-background:new 0 0 60 60;" xml:space="preserve">
<style type="text/css">
	.st0{clip-path:url(#SVGID_2_);fill:#231815;}
	.st1{clip-path:url(#SVGID_2_);fill:#F6CF5F;}
	.st2{clip-path:url(#SVGID_2_);fill:#FFFFFF;}
	.st3{clip-path:url(#SVGID_2_);fill:#040000;}
	.st4{fill:none;}
</style>
<g>
	<defs>
		<polyline id="SVGID_1_" points="-3.98,69.09 -3.98,2.06 63.05,2.06 63.05,69.09 		"/>
	</defs>
	<clipPath id="SVGID_2_">
		<use xlink:href="#SVGID_1_"  style="overflow:visible;"/>
	</clipPath>
	<path class="st0" d="M36.58,55.25c0,0.01,0,0.01,0,0.01C36.58,55.26,36.58,55.25,36.58,55.25L36.58,55.25z"/>
	<path class="st1" d="M57.22,14.47c0.02,0.15-0.09,0.29-0.24,0.3l-4.81,0.6c-0.01,0-0.02,0-0.03,0c-0.14,0-0.25-0.1-0.27-0.24
		c-0.02-0.15,0.09-0.29,0.24-0.3l4.81-0.6C57.07,14.21,57.21,14.32,57.22,14.47"/>
	<path class="st1" d="M56.99,21.01c0.15,0.02,0.26,0.16,0.24,0.3c-0.02,0.14-0.13,0.24-0.27,0.24c-0.01,0-0.02,0-0.03,0l-1.15-0.14
		c-0.15-0.02-0.26-0.15-0.24-0.3c0.02-0.15,0.16-0.26,0.3-0.24L56.99,21.01z"/>
	<path class="st1" d="M57.21,6.36c0.06,0.14-0.01,0.3-0.15,0.36l-1.83,0.76C55.19,7.5,55.16,7.5,55.12,7.5
		c-0.11,0-0.21-0.06-0.25-0.17c-0.06-0.14,0.01-0.3,0.15-0.36l1.83-0.76C56.99,6.16,57.15,6.22,57.21,6.36"/>
	<path class="st1" d="M57.06,29.06c0.14,0.06,0.2,0.22,0.15,0.36c-0.04,0.1-0.15,0.17-0.25,0.17c-0.03,0-0.07-0.01-0.1-0.02
		l-1.05-0.44c-0.14-0.06-0.2-0.22-0.15-0.36c0.06-0.14,0.22-0.21,0.36-0.15L57.06,29.06z"/>
	<path class="st1" d="M54.2,27.87c0.14,0.06,0.21,0.22,0.15,0.36c-0.04,0.1-0.14,0.17-0.25,0.17c-0.04,0-0.07-0.01-0.11-0.02
		l-3.76-1.57c-0.14-0.06-0.21-0.22-0.15-0.36c0.06-0.14,0.22-0.21,0.36-0.15L54.2,27.87z"/>
	<path class="st1" d="M53.25,20.55c0.15,0.02,0.26,0.15,0.24,0.3c-0.02,0.14-0.13,0.24-0.27,0.24c-0.01,0-0.02,0-0.03,0l-3.53-0.44
		c-0.15-0.02-0.26-0.16-0.24-0.31c0.02-0.15,0.15-0.26,0.3-0.24L53.25,20.55z"/>
	<path class="st1" d="M49.31,15.45c0.02,0.15-0.09,0.29-0.24,0.3l-3.36,0.42c-0.01,0-0.02,0-0.03,0c-0.14,0-0.25-0.1-0.27-0.24
		c-0.02-0.15,0.09-0.29,0.24-0.3l3.36-0.42C49.16,15.19,49.29,15.3,49.31,15.45"/>
	<path class="st1" d="M49.14,9.73c0.06,0.14-0.01,0.3-0.15,0.36l-4.06,1.69c-0.03,0.01-0.07,0.02-0.11,0.02
		c-0.11,0-0.21-0.06-0.25-0.17c-0.06-0.14,0.01-0.3,0.15-0.36l4.06-1.69C48.92,9.52,49.08,9.59,49.14,9.73"/>
	<path class="st1" d="M46.39,19.7c0.15,0.02,0.26,0.15,0.24,0.3c-0.02,0.14-0.13,0.24-0.27,0.24c-0.01,0-0.02,0-0.03,0l-1.36-0.17
		c-0.15-0.02-0.26-0.15-0.24-0.3c0.02-0.15,0.15-0.26,0.3-0.24L46.39,19.7z"/>
	<path class="st1" d="M45.2,15.96c0.02,0.15-0.09,0.29-0.24,0.3l-7.75,0.96c-0.01,0-0.02,0-0.03,0c-0.14,0-0.25-0.1-0.27-0.24
		c-0.02-0.15,0.09-0.29,0.24-0.3l7.75-0.96C45.05,15.7,45.19,15.81,45.2,15.96"/>
	<path class="st1" d="M44.65,23.89c0.14,0.06,0.21,0.22,0.15,0.36c-0.04,0.1-0.14,0.17-0.25,0.17c-0.03,0-0.07-0.01-0.1-0.02
		l-4.07-1.7c-0.14-0.06-0.2-0.22-0.15-0.36c0.06-0.14,0.22-0.2,0.36-0.15L44.65,23.89z"/>
	<path class="st1" d="M44.11,11.82c0.06,0.14-0.01,0.3-0.15,0.36l-2.14,0.89c-0.03,0.01-0.07,0.02-0.11,0.02
		c-0.11,0-0.21-0.06-0.25-0.17c-0.06-0.14,0.01-0.3,0.15-0.36l2.14-0.89C43.89,11.62,44.05,11.68,44.11,11.82"/>
	<path class="st1" d="M43.16,19.29c0.15,0.02,0.25,0.16,0.23,0.31c-0.02,0.14-0.14,0.24-0.27,0.24c-0.01,0-0.02,0-0.04,0l-2.38-0.32
		c-0.15-0.02-0.25-0.16-0.23-0.31c0.02-0.15,0.16-0.25,0.31-0.23L43.16,19.29z"/>
	<path class="st1" d="M36.56,18.45c0.15,0.02,0.26,0.15,0.24,0.3c-0.02,0.14-0.14,0.24-0.27,0.24c-0.01,0-0.02,0-0.03,0l-1.76-0.22
		c-0.15-0.02-0.26-0.16-0.24-0.31c0.02-0.15,0.16-0.26,0.31-0.24L36.56,18.45z"/>
	<path class="st1" d="M36.79,14.88c0.06,0.14-0.01,0.3-0.15,0.36l-1.68,0.7c-0.03,0.01-0.07,0.02-0.11,0.02
		c-0.11,0-0.21-0.06-0.25-0.17c-0.06-0.14,0.01-0.3,0.15-0.36l1.67-0.7C36.57,14.67,36.73,14.74,36.79,14.88"/>
	<path class="st1" d="M36.28,17.07c0.02,0.15-0.09,0.29-0.24,0.3l-2.61,0.32c-0.01,0-0.02,0-0.03,0c-0.14,0-0.25-0.1-0.27-0.24
		c-0.02-0.15,0.09-0.29,0.24-0.3l2.61-0.32C36.12,16.81,36.26,16.92,36.28,17.07"/>
	<polygon class="st2" points="34.72,36.57 34.72,36.88 34.72,36.88 34.68,36.57 	"/>
	<polygon class="st2" points="34.72,35.79 34.72,36.26 34.65,36.25 34.59,35.8 	"/>
	<polygon class="st2" points="34.64,34.74 34.64,34.96 34.5,34.95 34.48,34.76 	"/>
	<polygon class="st2" points="34.56,35.22 34.56,35.52 34.53,35.22 	"/>
	<polygon class="st2" points="34.49,33.85 34.49,34.47 34.44,34.47 34.38,33.85 	"/>
	<polygon class="st2" points="34.49,33.18 34.49,33.57 34.34,33.56 34.3,33.19 	"/>
	<polygon class="st2" points="34.34,32.05 34.34,32.67 34.24,32.67 34.17,32.05 	"/>
	<polygon class="st2" points="34.34,31.12 34.34,31.59 34.12,31.58 34.07,31.13 	"/>
	<path class="st0" d="M33.69,18.52c-0.05,0-0.1,0.01-0.15,0.01c0-0.06-0.01-0.11-0.01-0.17L33.69,18.52z"/>
	<path class="st1" d="M30.79,17.89c0,0.07,0,0.14-0.01,0.2l-0.31,0c-0.36-0.01-0.72,0-1.07-0.01c-0.36,0-0.72,0-1.07,0.01
		c-0.11,0-0.22,0-0.32,0v-0.2c0-0.77,0.63-1.4,1.4-1.4S30.79,17.12,30.79,17.89"/>
	<path class="st1" d="M30.47,18.62l0.12,0c-0.25,0.4-0.69,0.67-1.19,0.67h-1.4v-0.67c0.11,0,0.22,0,0.32,0
		c0.36,0.01,0.72,0.01,1.07,0.01C29.75,18.63,30.11,18.63,30.47,18.62"/>
	<path class="st0" d="M25.1,18.52l0.16-0.16c0,0.06-0.01,0.11-0.01,0.17L25.1,18.52z"/>
	<path class="st1" d="M25.05,15.72c0.14,0.06,0.21,0.22,0.15,0.36c-0.04,0.1-0.14,0.17-0.25,0.17c-0.04,0-0.07-0.01-0.11-0.02
		l-3.63-1.51c-0.14-0.06-0.21-0.22-0.15-0.36c0.06-0.14,0.22-0.21,0.36-0.15L25.05,15.72z"/>
	<path class="st0" d="M25.11,20.3c0,0.03-0.01,0.05-0.01,0.08c0-0.02-0.01-0.05-0.01-0.08H25.11z"/>
	<path class="st1" d="M24.65,17.01c0.15,0.02,0.26,0.15,0.24,0.3c-0.02,0.14-0.13,0.24-0.27,0.24c-0.01,0-0.02,0-0.03,0l-2.2-0.27
		c-0.15-0.02-0.26-0.16-0.24-0.31c0.02-0.15,0.15-0.26,0.3-0.24L24.65,17.01z"/>
	<path class="st1" d="M24.12,18.57c0.02,0.15-0.09,0.29-0.24,0.3l-0.55,0.07c-0.01,0-0.02,0-0.03,0c-0.14,0-0.25-0.1-0.27-0.24
		c-0.02-0.15,0.09-0.29,0.24-0.3l0.55-0.07C23.97,18.32,24.1,18.42,24.12,18.57"/>
	<path class="st1" d="M23.85,20.27c0.06,0.14-0.01,0.3-0.15,0.36l-7.21,3.01c-0.03,0.01-0.07,0.02-0.1,0.02
		c-0.11,0-0.21-0.06-0.25-0.17c-0.06-0.14,0.01-0.3,0.15-0.36l7.21-3.01C23.63,20.07,23.79,20.13,23.85,20.27"/>
	<path class="st1" d="M22.32,18.8c0.02,0.15-0.09,0.29-0.24,0.3l-3.85,0.48c-0.01,0-0.02,0-0.03,0c-0.14,0-0.25-0.1-0.27-0.24
		c-0.02-0.15,0.09-0.29,0.24-0.3l3.85-0.48C22.16,18.54,22.3,18.65,22.32,18.8"/>
	<path class="st1" d="M19.87,13.56c0.14,0.06,0.21,0.22,0.15,0.36c-0.04,0.1-0.14,0.17-0.25,0.17c-0.03,0-0.07-0.01-0.1-0.02
		l-8.09-3.37c-0.14-0.06-0.21-0.22-0.15-0.36c0.06-0.14,0.22-0.21,0.36-0.15L19.87,13.56z"/>
	<path class="st1" d="M18.46,16.25c0.15,0.02,0.26,0.15,0.24,0.3c-0.02,0.14-0.13,0.24-0.27,0.24c-0.01,0-0.02,0-0.03,0l-1.96-0.24
		c-0.15-0.02-0.26-0.15-0.24-0.3c0.02-0.15,0.15-0.26,0.31-0.24L18.46,16.25z"/>
	<path class="st1" d="M15.96,19.59c0.02,0.15-0.09,0.29-0.24,0.3L9.19,20.7c-0.01,0-0.02,0-0.03,0c-0.14,0-0.25-0.1-0.27-0.24
		c-0.02-0.15,0.09-0.29,0.24-0.3l6.54-0.81C15.81,19.33,15.94,19.44,15.96,19.59"/>
	<path class="st1" d="M14.38,24.22c0.06,0.14-0.01,0.3-0.15,0.36l-3.53,1.47c-0.03,0.01-0.07,0.02-0.1,0.02
		c-0.11,0-0.21-0.06-0.25-0.17c-0.06-0.14,0.01-0.3,0.15-0.36l3.53-1.47C14.16,24.01,14.32,24.08,14.38,24.22"/>
	<path class="st1" d="M13.53,15.64c0.15,0.02,0.26,0.16,0.24,0.3c-0.02,0.14-0.13,0.24-0.27,0.24c-0.01,0-0.02,0-0.03,0L9.62,15.7
		c-0.15-0.02-0.26-0.15-0.24-0.3c0.02-0.15,0.15-0.26,0.3-0.24L13.53,15.64z"/>
	<path class="st1" d="M10.44,9.63c0.14,0.06,0.21,0.22,0.15,0.36c-0.04,0.1-0.14,0.17-0.25,0.17c-0.04,0-0.07-0.01-0.11-0.02
		L7.26,8.89C7.12,8.83,7.05,8.67,7.11,8.53c0.06-0.14,0.22-0.21,0.36-0.15L10.44,9.63z"/>
	<path class="st1" d="M8.33,14.99c0.15,0.02,0.26,0.16,0.24,0.3c-0.02,0.14-0.14,0.24-0.27,0.24c-0.01,0-0.02,0-0.03,0l-0.92-0.11
		c-0.15-0.02-0.26-0.16-0.24-0.3c0.02-0.15,0.15-0.26,0.3-0.24L8.33,14.99z"/>
	<path class="st1" d="M8.1,20.56c0.02,0.15-0.09,0.29-0.24,0.3l-5.71,0.71c-0.01,0-0.02,0-0.03,0c-0.14,0-0.25-0.1-0.27-0.24
		c-0.02-0.15,0.09-0.29,0.24-0.3l5.71-0.71C7.94,20.31,8.08,20.41,8.1,20.56"/>
	<path class="st1" d="M4.03,28.53c0.06,0.14-0.01,0.3-0.15,0.36l-1.63,0.68c-0.03,0.01-0.07,0.02-0.11,0.02
		c-0.11,0-0.21-0.06-0.25-0.17c-0.06-0.14,0.01-0.3,0.15-0.36l1.63-0.68C3.81,28.33,3.97,28.39,4.03,28.53"/>
	<path class="st1" d="M3.77,6.85C3.91,6.9,3.98,7.06,3.92,7.2c-0.04,0.1-0.15,0.17-0.25,0.17c-0.04,0-0.07-0.01-0.1-0.02L2.06,6.72
		C1.92,6.66,1.85,6.5,1.91,6.36c0.06-0.14,0.22-0.21,0.36-0.15L3.77,6.85z"/>
	<path class="st1" d="M2.79,14.31c0.15,0.02,0.26,0.16,0.24,0.3c-0.02,0.14-0.13,0.24-0.27,0.24c-0.01,0-0.02,0-0.03,0L2.1,14.77
		c-0.15-0.02-0.26-0.15-0.24-0.3c0.02-0.15,0.15-0.26,0.3-0.24L2.79,14.31z"/>
	<path class="st3" d="M32.6,15.03h-6.41c0.03-0.3,0.21-0.59,0.58-0.83c1.96-1.25,2.62-2.99,2.62-2.99s0.67,1.74,2.62,2.99
		C32.38,14.44,32.56,14.73,32.6,15.03"/>
	<path class="st3" d="M33.14,22.88c0,0,0.07,0,0.71,0c0.63,0,0.58-0.68,0.58-0.68s0.02-0.98,0-1.38c-0.02-0.41-0.4-0.49-0.4-0.49
		l-0.94,0.01l-0.26-1.78l0.71-0.04l0.14,1.8l0.17-2.11l-1.09-0.06l-0.38-2.62h-6l-0.37,2.62l-1.1,0.06l0.18,2.06l0.14-1.74
		l0.72,0.04l-0.25,1.74c0,0-0.15,0-0.71,0c-0.55,0-0.64,0.52-0.64,0.52s0,0.7,0,1.35c0,0.65,0.46,0.71,0.46,0.71h0.59l-0.69,7.02
		c0.02,4.45,4.38,5.72,4.38,5.72c5.6,2.28,6,4.76,6,4.76L33.14,22.88z"/>
	<path class="st3" d="M24.41,32.81c0,0-0.1,4.06,4.31,5.71c4.41,1.65,6.37,3.78,6.56,5.6c0.19,1.81,1.3,11.14,1.3,11.14
		s-0.23-2.34-3.04-4.55c-2.81-2.22-10.29-2.57-9.76-9.36C24.3,34.56,24.41,32.81,24.41,32.81"/>
	<path class="st1" d="M27.99,18.1h2.78c0,0,0.14-1.14-0.92-1.52C28.79,16.19,27.91,17.09,27.99,18.1"/>
	<path class="st1" d="M27.99,18.62l2.59,0c0,0-0.4,0.66-1.1,0.67c-0.69,0-1.49,0-1.49,0V18.62z"/>
</g>
<polyline class="st4" points="-3.98,69.09 -3.98,2.06 63.05,2.06 63.05,69.09 "/>
</svg>
