<?xml version="1.0" encoding="utf-8"?>
<!-- Generator: Adobe Illustrator 25.0.0, SVG Export Plug-In . SVG Version: 6.00 Build 0)  -->
<svg version="1.1" id="圖層_1" xmlns="http://www.w3.org/2000/svg" xmlns:xlink="http://www.w3.org/1999/xlink" x="0px" y="0px"
	 viewBox="0 0 283.46 283.46" style="enable-background:new 0 0 283.46 283.46;" xml:space="preserve">
<style type="text/css">
	.st0{fill:#231815;}
	.st1{fill:#040000;}
	.st2{fill:none;stroke:#231815;stroke-width:2.3083;stroke-miterlimit:10;}
	.st3{fill:none;stroke:#231815;stroke-width:2.3083;stroke-linecap:round;stroke-miterlimit:10;}
	.st4{fill:#F6CF5F;}
	.st5{fill:#FFFFFF;}
</style>
<g>
	<g>
		<g>
			<path class="st0" d="M129.35,157.14c0.01,0.11,0.02,0.2,0.02,0.27c0,0.07,0,0.19,0,0.36s0,0.3-0.01,0.38
				c-0.01,0.23-0.08,0.4-0.2,0.5c0.19,0.1,0.3,0.29,0.34,0.55c0.03,0.19,0.05,0.4,0.05,0.63s0,0.38,0,0.45
				c0,0.07-0.01,0.17-0.03,0.28c-0.02,0.11-0.04,0.19-0.07,0.25c-0.03,0.06-0.07,0.12-0.13,0.19c-0.06,0.07-0.13,0.12-0.21,0.15
				c-0.21,0.08-0.47,0.12-0.76,0.12l-0.81-0.05v-4.7l0.68-0.07c0.48,0,0.79,0.09,0.93,0.26c0.05,0.07,0.09,0.13,0.12,0.18
				C129.32,156.95,129.34,157.03,129.35,157.14z M128.17,158.49c0.23,0,0.37-0.01,0.44-0.03c0.07-0.02,0.12-0.03,0.15-0.04
				c0.03-0.01,0.07-0.04,0.09-0.07c0.03-0.04,0.04-0.07,0.06-0.09c0.01-0.02,0.02-0.07,0.03-0.14c0.01-0.07,0.01-0.13,0.01-0.18
				v-0.21c0-0.39-0.03-0.62-0.1-0.7c-0.09-0.1-0.2-0.16-0.31-0.18c-0.12-0.02-0.24-0.02-0.37-0.02h-0.23l0.03,0.16v1.34l-0.03,0.16
				H128.17z M128.37,160.89c0.26,0,0.47-0.05,0.61-0.14c0.1-0.06,0.15-0.21,0.16-0.44c0-0.07,0.01-0.18,0.01-0.31v-0.26
				c0-0.2,0-0.32-0.01-0.35c-0.01-0.03-0.02-0.08-0.03-0.15c-0.01-0.06-0.02-0.1-0.04-0.12c-0.02-0.02-0.04-0.05-0.07-0.09
				s-0.06-0.06-0.09-0.07c-0.03-0.01-0.07-0.03-0.12-0.05c-0.07-0.03-0.19-0.04-0.36-0.04h-0.49l0.03,0.16v1.7l-0.03,0.16H128.37z"
				/>
		</g>
		<g>
			<path class="st0" d="M132.49,161.22c-0.22,0-0.36-0.01-0.41-0.04c-0.05-0.03-0.11-0.11-0.18-0.26l-0.88-1.93h-0.34l0.03,0.16
				v1.76h0.01c0,0.15-0.02,0.23-0.05,0.26c-0.03,0.03-0.14,0.04-0.33,0.04h-0.04v-4.7l0.74-0.07c0.45,0,0.74,0.09,0.87,0.26
				c0.05,0.07,0.09,0.13,0.12,0.18c0.03,0.05,0.05,0.13,0.06,0.24c0.02,0.14,0.03,0.32,0.03,0.52c0,0.21,0,0.36-0.01,0.47
				c-0.01,0.11-0.02,0.22-0.05,0.33c-0.03,0.12-0.06,0.21-0.11,0.27c-0.11,0.15-0.28,0.24-0.51,0.25l1.08,2.23H132.49z
				 M131.04,158.62c0.22,0,0.39-0.04,0.51-0.12c0.07-0.06,0.12-0.2,0.13-0.43c0-0.07,0.01-0.18,0.01-0.34c0-0.16,0-0.28-0.01-0.34
				c0-0.07-0.02-0.15-0.04-0.24s-0.05-0.15-0.09-0.19c-0.12-0.08-0.29-0.12-0.51-0.12h-0.33v1.63l-0.03,0.16H131.04z"/>
		</g>
		<g>
			<path class="st0" d="M133.66,161.22h-0.03c-0.19,0-0.3-0.01-0.33-0.04c-0.03-0.03-0.05-0.11-0.05-0.26v-4.39h0.03
				c0.19,0,0.3,0.01,0.33,0.04c0.03,0.03,0.05,0.11,0.05,0.26V161.22z"/>
		</g>
		<g>
			<path class="st0" d="M136.25,159.22c0-0.19,0.01-0.3,0.04-0.33c0.03-0.03,0.11-0.05,0.26-0.05h0.11v2.31
				c-0.07,0.01-0.16,0.02-0.29,0.05c-0.25,0.04-0.45,0.07-0.59,0.07c-0.14,0-0.26-0.01-0.36-0.04c-0.1-0.03-0.19-0.06-0.26-0.1
				c-0.07-0.04-0.14-0.1-0.19-0.19c-0.06-0.08-0.1-0.16-0.14-0.23c-0.04-0.07-0.07-0.17-0.09-0.3c-0.03-0.13-0.05-0.24-0.06-0.33
				c-0.01-0.09-0.02-0.22-0.03-0.39c-0.01-0.17-0.01-0.3-0.01-0.4v-0.84c0-0.33,0.01-0.55,0.02-0.66c0.02-0.11,0.03-0.23,0.05-0.35
				c0.02-0.12,0.04-0.22,0.07-0.28c0.03-0.07,0.06-0.14,0.1-0.23c0.04-0.09,0.09-0.15,0.14-0.2c0.05-0.05,0.12-0.09,0.19-0.14
				c0.13-0.08,0.31-0.12,0.55-0.12l0.78,0.13c0,0.13-0.02,0.2-0.07,0.23c-0.05,0.03-0.1,0.05-0.15,0.05c-0.05,0-0.09,0-0.11,0
				l-0.46-0.04c-0.18,0-0.32,0.05-0.4,0.16c-0.05,0.06-0.1,0.11-0.13,0.17c-0.03,0.06-0.06,0.14-0.08,0.25
				c-0.02,0.11-0.04,0.21-0.05,0.29c-0.01,0.08-0.02,0.2-0.03,0.35c-0.01,0.15-0.01,0.28-0.01,0.37v0.83c0,0.33,0.01,0.55,0.03,0.67
				c0.02,0.12,0.04,0.24,0.06,0.35c0.02,0.11,0.05,0.2,0.08,0.26c0.03,0.06,0.08,0.12,0.13,0.18c0.09,0.11,0.23,0.17,0.4,0.17
				c0.13,0,0.31-0.02,0.53-0.07l-0.03-0.16V159.22z"/>
		</g>
		<g>
			<path class="st0" d="M139.53,161.22h-0.03c-0.19,0-0.3-0.01-0.33-0.04c-0.03-0.03-0.05-0.11-0.05-0.26v-1.89l0.03-0.16h-1.24
				l0.03,0.16v1.89c0,0.15-0.02,0.23-0.05,0.26c-0.03,0.03-0.14,0.04-0.33,0.04h-0.03v-4.69h0.03c0.19,0,0.3,0.01,0.33,0.04
				c0.03,0.03,0.05,0.11,0.05,0.26v1.5l-0.03,0.16h1.24l-0.03-0.16v-1.8h0.03c0.19,0,0.3,0.01,0.33,0.04
				c0.03,0.03,0.05,0.11,0.05,0.26V161.22z"/>
		</g>
		<g>
			<path class="st0" d="M140.94,161.22h-0.05v-4.18l0.03-0.16h-0.73v-0.34h1.84v0.34h-0.74l0.03,0.16v3.88
				c0,0.15-0.02,0.23-0.05,0.26C141.24,161.2,141.13,161.22,140.94,161.22z"/>
		</g>
		<g>
			<path class="st0" d="M144.67,161.22h-0.03c-0.19,0-0.3-0.01-0.33-0.04c-0.03-0.03-0.05-0.11-0.05-0.26v-1.89l0.03-0.16h-1.24
				l0.03,0.16v1.89c0,0.15-0.02,0.23-0.05,0.26c-0.03,0.03-0.14,0.04-0.33,0.04h-0.03v-4.69h0.03c0.19,0,0.3,0.01,0.33,0.04
				c0.03,0.03,0.05,0.11,0.05,0.26v1.5l-0.03,0.16h1.24l-0.03-0.16v-1.8h0.03c0.19,0,0.3,0.01,0.33,0.04
				c0.03,0.03,0.05,0.11,0.05,0.26V161.22z"/>
		</g>
		<g>
			<path class="st0" d="M147.64,160.7c-0.15,0.37-0.46,0.56-0.91,0.56c-0.45,0-0.75-0.19-0.91-0.56c-0.16-0.37-0.23-0.99-0.23-1.87
				c0-0.87,0.08-1.49,0.23-1.85c0.16-0.36,0.46-0.54,0.91-0.54c0.45,0,0.75,0.18,0.91,0.54c0.15,0.36,0.23,0.97,0.23,1.85
				C147.87,159.71,147.79,160.33,147.64,160.7z M146.73,160.89c0.27,0,0.46-0.17,0.56-0.5c0.1-0.33,0.15-0.85,0.15-1.55
				c0-0.68-0.05-1.17-0.14-1.49c-0.1-0.35-0.29-0.53-0.57-0.53s-0.46,0.16-0.56,0.48c-0.1,0.32-0.15,0.77-0.15,1.35
				c0,0.58,0.02,1.01,0.05,1.29C146.15,160.58,146.37,160.89,146.73,160.89z"/>
		</g>
		<g>
			<path class="st0" d="M150.46,159.28v-2.75h0.05c0.19,0,0.3,0.01,0.33,0.04c0.03,0.03,0.05,0.11,0.05,0.26v2.45
				c0,0.33,0,0.58-0.01,0.73c-0.01,0.15-0.03,0.33-0.06,0.53c-0.03,0.2-0.09,0.34-0.16,0.42c-0.19,0.2-0.46,0.3-0.83,0.3
				s-0.61-0.07-0.73-0.21c-0.05-0.06-0.1-0.11-0.13-0.16c-0.03-0.05-0.06-0.12-0.08-0.22c-0.02-0.1-0.04-0.19-0.05-0.26
				c-0.01-0.07-0.02-0.17-0.03-0.32c-0.01-0.15-0.01-0.26-0.01-0.35v-3.2h0.05c0.19,0,0.3,0.01,0.33,0.04
				c0.03,0.03,0.05,0.11,0.05,0.26v2.45c0,0.03,0,0.11,0,0.25c0,0.14,0,0.25,0,0.35c0,0.1,0.01,0.22,0.02,0.36
				c0.01,0.14,0.03,0.24,0.05,0.3c0.02,0.06,0.06,0.12,0.1,0.19c0.08,0.11,0.22,0.16,0.44,0.16c0.29,0,0.47-0.11,0.54-0.32
				C150.43,160.35,150.46,159.92,150.46,159.28z"/>
		</g>
		<g>
			<path class="st0" d="M153.63,159.7v0.14c0,0.43-0.04,0.74-0.12,0.92c-0.16,0.33-0.49,0.5-1,0.5l-0.94-0.13v-0.36l0.95,0.07
				c0.29,0,0.48-0.07,0.57-0.2c0.03-0.05,0.05-0.09,0.07-0.13c0.02-0.03,0.03-0.09,0.04-0.17c0.01-0.08,0.01-0.14,0.01-0.17
				c0-0.04,0-0.1,0-0.2c0-0.1,0-0.16,0-0.2c0-0.21-0.19-0.48-0.57-0.81c-0.16-0.13-0.31-0.27-0.47-0.42
				c-0.16-0.14-0.3-0.3-0.41-0.48c-0.11-0.18-0.17-0.34-0.17-0.5c0-0.15,0-0.26,0-0.31c0-0.05,0.01-0.13,0.02-0.23
				c0.01-0.1,0.03-0.17,0.06-0.21c0.03-0.04,0.06-0.09,0.11-0.15c0.05-0.06,0.11-0.1,0.19-0.12c0.21-0.06,0.44-0.09,0.67-0.09
				l0.69,0.13c0,0.16-0.04,0.25-0.13,0.27c-0.03,0-0.09,0-0.16,0l-0.36-0.04c-0.31,0-0.51,0.07-0.58,0.2
				c-0.04,0.07-0.07,0.14-0.08,0.2c-0.01,0.07-0.02,0.16-0.02,0.28c0,0.12,0.04,0.24,0.12,0.36c0.08,0.12,0.18,0.24,0.3,0.34
				c0.12,0.1,0.25,0.21,0.39,0.34c0.14,0.12,0.27,0.24,0.39,0.35c0.12,0.11,0.22,0.24,0.3,0.38
				C153.59,159.41,153.63,159.55,153.63,159.7z"/>
		</g>
		<g>
			<path class="st0" d="M156.15,161.22h-1.78v-4.69h1.71v0.34h-1.31l0.03,0.16v1.29l-0.03,0.16h1.22v0.37h-1.22l0.03,0.16v1.65
				l-0.03,0.16h1.37V161.22z"/>
		</g>
	</g>
	<g>
		<g>
			<path class="st1" d="M129.07,163.94v-0.66v-0.02c0-0.3-0.01-0.48-0.03-0.55c-0.02-0.07-0.08-0.1-0.17-0.1l-0.28,0.09l0.01,0.08
				v1.31c-0.09,0-0.14-0.01-0.15-0.02c-0.02-0.01-0.02-0.05-0.02-0.12l0-0.66c0-0.01,0-0.04,0-0.08c0-0.05,0-0.09,0-0.12
				c0-0.03,0-0.07,0-0.1c0-0.03,0-0.07-0.01-0.12c0-0.05-0.01-0.09-0.02-0.11c-0.01-0.02-0.02-0.05-0.03-0.07
				c-0.02-0.04-0.07-0.06-0.14-0.06l-0.28,0.11l0.01,0.08v1.29c-0.09,0-0.14-0.01-0.15-0.02c-0.02-0.01-0.02-0.05-0.02-0.12v-1.47
				c0.09,0,0.14,0,0.15,0.01c0.02,0.01,0.02,0.03,0.02,0.08l0.27-0.11c0.14,0,0.25,0.04,0.32,0.13l0.32-0.13
				c0.18,0,0.29,0.04,0.33,0.13c0.04,0.09,0.05,0.32,0.05,0.71v0.8c-0.09,0-0.14-0.01-0.16-0.02
				C129.08,164.04,129.07,164,129.07,163.94z"/>
		</g>
		<g>
			<path class="st1" d="M131.08,163.26v-0.8c0.09,0,0.14,0.01,0.15,0.02c0.02,0.01,0.02,0.05,0.02,0.12v0.65
				c0,0.23,0.01,0.39,0.02,0.48c0.01,0.09,0.03,0.14,0.06,0.17c0.03,0.03,0.06,0.04,0.11,0.04l0.3-0.14l-0.02-0.08v-1.26
				c0.09,0,0.14,0.01,0.15,0.02c0.02,0.01,0.02,0.05,0.02,0.12v1.47c-0.09,0-0.14,0-0.15-0.02c-0.02-0.01-0.02-0.05-0.02-0.11
				l-0.27,0.14c-0.13,0-0.23-0.04-0.3-0.12c-0.05-0.05-0.07-0.18-0.08-0.4C131.08,163.52,131.08,163.41,131.08,163.26z"/>
		</g>
		<g>
			<path class="st1" d="M134.33,164c-0.02,0.03-0.06,0.05-0.1,0.07c-0.04,0.02-0.09,0.02-0.15,0.02c-0.06,0-0.18-0.02-0.36-0.05
				v-0.16c0.01,0,0.06,0.01,0.15,0.02c0.09,0.01,0.16,0.02,0.21,0.02c0.11,0,0.17-0.1,0.17-0.31c0-0.01,0-0.03,0-0.04
				c0-0.06-0.06-0.14-0.19-0.24c-0.12-0.09-0.21-0.17-0.27-0.24c-0.06-0.07-0.09-0.14-0.09-0.21c0-0.07,0-0.12,0-0.15
				c0-0.03,0.01-0.06,0.02-0.11c0.01-0.04,0.03-0.07,0.05-0.09c0.06-0.05,0.16-0.08,0.28-0.08l0.29,0.04c0,0.09-0.04,0.13-0.11,0.13
				c-0.01,0-0.03,0-0.04,0l-0.12-0.02c-0.1,0-0.16,0.02-0.18,0.07c-0.02,0.04-0.03,0.09-0.03,0.17c0,0.07,0.08,0.17,0.23,0.3
				c0.07,0.05,0.13,0.1,0.16,0.13c0.04,0.03,0.07,0.07,0.11,0.13c0.03,0.05,0.05,0.1,0.05,0.15c0,0.05,0,0.09,0,0.13
				c0,0.04-0.01,0.08-0.01,0.12c-0.01,0.05-0.02,0.09-0.03,0.12C134.37,163.94,134.35,163.97,134.33,164z"/>
		</g>
		<g>
			<path class="st1" d="M136.41,162.14c-0.03,0.03-0.06,0.04-0.1,0.04c-0.04,0-0.07-0.01-0.1-0.04c-0.03-0.03-0.04-0.06-0.04-0.1
				s0.01-0.07,0.04-0.1c0.03-0.03,0.06-0.04,0.1-0.04c0.04,0,0.07,0.01,0.1,0.04c0.03,0.03,0.04,0.06,0.04,0.1
				C136.45,162.09,136.44,162.12,136.41,162.14z M136.23,163.95v-1.49c0.09,0,0.14,0.01,0.15,0.02c0.02,0.01,0.02,0.05,0.02,0.12
				v1.49c-0.09,0-0.14-0.01-0.15-0.02C136.23,164.06,136.23,164.02,136.23,163.95z"/>
		</g>
		<g>
			<path class="st1" d="M138.27,163.27v-0.19c0-0.15,0-0.24,0.01-0.28c0.01-0.04,0.02-0.08,0.02-0.12c0.01-0.04,0.02-0.07,0.03-0.09
				c0.01-0.02,0.03-0.04,0.05-0.06c0.02-0.02,0.04-0.04,0.07-0.05c0.07-0.02,0.14-0.04,0.21-0.04l0.25,0.04
				c0,0.09-0.04,0.13-0.11,0.13c-0.01,0-0.03,0-0.04,0l-0.1-0.01c-0.1,0-0.16,0.04-0.19,0.13c-0.02,0.09-0.03,0.23-0.03,0.44
				c0,0.21,0,0.34,0,0.41c0,0.06,0.01,0.13,0.02,0.2c0.01,0.07,0.04,0.11,0.07,0.14c0.03,0.02,0.07,0.03,0.13,0.03l0.26-0.03v0.14
				l-0.26,0.05c-0.11,0-0.18-0.01-0.22-0.04c-0.04-0.03-0.06-0.05-0.08-0.06c-0.02-0.02-0.03-0.05-0.05-0.09
				c-0.01-0.04-0.02-0.08-0.03-0.11c-0.01-0.03-0.01-0.08-0.02-0.15C138.27,163.53,138.27,163.4,138.27,163.27z"/>
		</g>
		<g>
			<path class="st1" d="M143.39,164c-0.02,0.03-0.06,0.05-0.1,0.07c-0.04,0.02-0.09,0.02-0.15,0.02s-0.18-0.02-0.36-0.05v-0.16
				c0.01,0,0.06,0.01,0.15,0.02c0.09,0.01,0.16,0.02,0.21,0.02c0.11,0,0.17-0.1,0.17-0.31c0-0.01,0-0.03,0-0.04
				c0-0.06-0.06-0.14-0.19-0.24c-0.12-0.09-0.21-0.17-0.27-0.24c-0.06-0.07-0.09-0.14-0.09-0.21c0-0.07,0-0.12,0-0.15
				c0-0.03,0.01-0.06,0.02-0.11c0.01-0.04,0.03-0.07,0.05-0.09c0.06-0.05,0.16-0.08,0.28-0.08l0.29,0.04c0,0.09-0.04,0.13-0.11,0.13
				c-0.01,0-0.03,0-0.04,0l-0.12-0.02c-0.1,0-0.16,0.02-0.18,0.07c-0.02,0.04-0.03,0.09-0.03,0.17c0,0.07,0.08,0.17,0.23,0.3
				c0.07,0.05,0.13,0.1,0.16,0.13c0.04,0.03,0.07,0.07,0.11,0.13c0.04,0.05,0.05,0.1,0.05,0.15c0,0.05,0,0.09,0,0.13
				c0,0.04-0.01,0.08-0.01,0.12c-0.01,0.05-0.02,0.09-0.03,0.12C143.43,163.94,143.41,163.97,143.39,164z"/>
		</g>
		<g>
			<path class="st1" d="M145.31,163.39v-0.69l0.01-0.08h-0.13v-0.16h0.13l-0.01-0.11v-0.13c0.09,0,0.14,0.01,0.15,0.02
				c0.01,0.01,0.02,0.05,0.02,0.12l-0.01,0.1h0.28c0,0.07-0.01,0.12-0.02,0.14c-0.01,0.02-0.05,0.03-0.12,0.03h-0.13l0.01,0.08v0.69
				c0,0.23,0.01,0.38,0.02,0.44c0.01,0.07,0.05,0.1,0.1,0.1h0.2v0.14l-0.21,0.01c-0.14,0-0.22-0.04-0.25-0.13
				C145.32,163.88,145.31,163.69,145.31,163.39z"/>
		</g>
		<g>
			<path class="st1" d="M147.49,163.26v-0.8c0.09,0,0.14,0.01,0.15,0.02c0.02,0.01,0.02,0.05,0.02,0.12v0.65
				c0,0.23,0.01,0.39,0.02,0.48c0.01,0.09,0.03,0.14,0.06,0.17c0.03,0.03,0.06,0.04,0.11,0.04l0.3-0.14l-0.02-0.08v-1.26
				c0.09,0,0.14,0.01,0.15,0.02c0.02,0.01,0.02,0.05,0.02,0.12v1.47c-0.09,0-0.14,0-0.15-0.02c-0.02-0.01-0.02-0.05-0.02-0.11
				l-0.27,0.14c-0.13,0-0.23-0.04-0.3-0.12c-0.05-0.05-0.07-0.18-0.08-0.4C147.49,163.52,147.49,163.41,147.49,163.26z"/>
		</g>
		<g>
			<path class="st1" d="M150.14,163.59c0-0.07,0-0.16,0-0.27c0-0.11,0-0.19,0-0.24c0-0.04,0-0.1,0-0.16c0-0.06,0.01-0.11,0.01-0.14
				c0.01-0.03,0.01-0.07,0.02-0.11c0.01-0.04,0.02-0.07,0.03-0.09c0.01-0.02,0.03-0.04,0.05-0.07c0.02-0.02,0.04-0.04,0.07-0.05
				c0.07-0.02,0.14-0.04,0.22-0.04l0.22,0.08v-0.65c0.09,0,0.14,0.01,0.15,0.02c0.01,0.01,0.02,0.05,0.02,0.12v2.06
				c-0.09,0-0.14-0.01-0.15-0.02c-0.01-0.01-0.02-0.06-0.02-0.14l-0.24,0.18c-0.13,0-0.24-0.04-0.31-0.11
				C150.17,163.93,150.14,163.8,150.14,163.59z M150.32,162.87c-0.01,0.07-0.01,0.13-0.01,0.17c0,0.04,0,0.16,0,0.35
				c0,0.19,0.01,0.32,0.03,0.39c0.04,0.09,0.11,0.14,0.19,0.15l0.25-0.14l-0.01-0.08v-0.97l0.01-0.08l-0.25-0.08
				c-0.07,0-0.13,0.03-0.15,0.08C150.34,162.73,150.33,162.8,150.32,162.87z"/>
		</g>
		<g>
			<path class="st1" d="M153.02,162.14c-0.03,0.03-0.06,0.04-0.1,0.04c-0.04,0-0.07-0.01-0.1-0.04c-0.03-0.03-0.04-0.06-0.04-0.1
				s0.01-0.07,0.04-0.1c0.03-0.03,0.06-0.04,0.1-0.04c0.04,0,0.07,0.01,0.1,0.04c0.03,0.03,0.04,0.06,0.04,0.1
				C153.06,162.09,153.05,162.12,153.02,162.14z M152.84,163.95v-1.49c0.09,0,0.14,0.01,0.15,0.02c0.01,0.01,0.02,0.05,0.02,0.12
				v1.49c-0.09,0-0.14-0.01-0.15-0.02C152.85,164.06,152.84,164.02,152.84,163.95z"/>
		</g>
		<g>
			<path class="st1" d="M155.51,164.06c-0.03,0.01-0.04,0.01-0.04,0.01s-0.02,0-0.05,0.01c-0.04,0.01-0.08,0.01-0.13,0.01
				c-0.05,0-0.09,0-0.13-0.01c-0.04-0.01-0.07-0.02-0.1-0.04c-0.03-0.02-0.05-0.04-0.07-0.06c-0.02-0.02-0.04-0.05-0.05-0.09
				c-0.01-0.04-0.02-0.08-0.03-0.11c-0.01-0.03-0.01-0.08-0.02-0.15c0-0.07,0-0.13-0.01-0.17c0-0.04,0-0.11,0-0.21
				c0-0.1,0-0.17,0-0.21c0-0.04,0-0.1,0.01-0.17c0-0.07,0.01-0.12,0.02-0.15c0.01-0.03,0.02-0.07,0.03-0.11
				c0.01-0.04,0.03-0.07,0.05-0.09c0.02-0.02,0.04-0.03,0.07-0.05c0.05-0.03,0.11-0.05,0.19-0.05c0.08,0,0.14,0,0.17,0.01
				c0.03,0.01,0.07,0.01,0.09,0.02c0.03,0.01,0.05,0.02,0.07,0.05c0.02,0.03,0.04,0.05,0.05,0.06c0.01,0.02,0.02,0.05,0.03,0.09
				c0.01,0.04,0.01,0.08,0.02,0.11c0,0.03,0.01,0.07,0.01,0.14c0,0.06,0,0.12,0,0.16v0.19v0.01v0.18c0,0.14,0,0.23-0.01,0.27
				c-0.01,0.04-0.02,0.09-0.02,0.13c-0.01,0.04-0.02,0.07-0.03,0.09c-0.01,0.02-0.03,0.04-0.05,0.06
				C155.56,164.03,155.54,164.05,155.51,164.06z M155.52,163.33v-0.1c0-0.26-0.01-0.43-0.03-0.5c-0.03-0.09-0.1-0.13-0.2-0.13
				c-0.08,0-0.14,0.02-0.17,0.06c-0.02,0.03-0.03,0.05-0.04,0.08c-0.01,0.02-0.02,0.07-0.02,0.13c-0.01,0.09-0.01,0.17-0.01,0.26
				c0,0.08,0,0.16,0,0.25c0,0.08,0,0.15,0,0.21c0,0.06,0.01,0.12,0.03,0.19c0.02,0.07,0.04,0.11,0.07,0.13
				c0.03,0.02,0.07,0.03,0.12,0.03c0.05,0,0.09,0,0.11-0.01c0.03-0.01,0.05-0.03,0.06-0.05c0.02-0.03,0.03-0.05,0.04-0.08
				c0.01-0.03,0.02-0.06,0.02-0.12C155.52,163.6,155.52,163.48,155.52,163.33z"/>
		</g>
	</g>
	<g>
		<polygon class="st0" points="141.75,156.02 141.72,156.01 141.68,156 141.78,155.87 		"/>
	</g>
	<g>
		<path class="st2" d="M136.28,155.03"/>
	</g>
	<g>
		<path class="st2" d="M136.28,155.03"/>
	</g>
	<g>
		<path class="st0" d="M146.82,154.64C146.82,154.64,146.82,154.64,146.82,154.64C146.82,154.64,146.82,154.64,146.82,154.64
			C146.82,154.64,146.82,154.64,146.82,154.64z"/>
	</g>
	<g>
		<path class="st3" d="M161.53,116.22"/>
	</g>
	<g>
		<path class="st3" d="M121.96,116.22"/>
	</g>
	<g>
		<path class="st4" d="M161.73,125.18c0.01,0.11-0.06,0.21-0.17,0.22l-3.47,0.43c-0.01,0-0.02,0-0.02,0c-0.1,0-0.18-0.07-0.2-0.17
			c-0.01-0.11,0.06-0.21,0.17-0.22l3.47-0.43C161.62,125,161.71,125.07,161.73,125.18z"/>
	</g>
	<g>
		<path class="st4" d="M161.56,129.91c0.11,0.01,0.18,0.11,0.17,0.22c-0.01,0.1-0.1,0.17-0.2,0.17c-0.01,0-0.02,0-0.02,0l-0.83-0.1
			c-0.11-0.01-0.18-0.11-0.17-0.22c0.01-0.11,0.11-0.18,0.22-0.17L161.56,129.91z"/>
	</g>
	<g>
		<path class="st4" d="M161.71,119.33c0.04,0.1-0.01,0.22-0.11,0.26l-1.32,0.55c-0.03,0.01-0.05,0.02-0.08,0.02
			c-0.08,0-0.15-0.05-0.18-0.12c-0.04-0.1,0.01-0.22,0.11-0.26l1.32-0.55C161.56,119.18,161.67,119.23,161.71,119.33z"/>
	</g>
	<g>
		<path class="st4" d="M161.61,135.73c0.1,0.04,0.15,0.16,0.11,0.26c-0.03,0.08-0.11,0.12-0.18,0.12c-0.03,0-0.05-0.01-0.08-0.02
			l-0.76-0.32c-0.1-0.04-0.15-0.16-0.11-0.26c0.04-0.1,0.16-0.15,0.26-0.11L161.61,135.73z"/>
	</g>
	<g>
		<path class="st4" d="M159.55,134.86c0.1,0.04,0.15,0.16,0.11,0.26c-0.03,0.08-0.1,0.12-0.18,0.12c-0.03,0-0.05-0.01-0.08-0.02
			l-2.71-1.13c-0.1-0.04-0.15-0.16-0.11-0.26c0.04-0.1,0.16-0.15,0.26-0.11L159.55,134.86z"/>
	</g>
	<g>
		<path class="st4" d="M158.86,129.58c0.11,0.01,0.18,0.11,0.17,0.22c-0.01,0.1-0.1,0.17-0.2,0.17c-0.01,0-0.02,0-0.02,0l-2.55-0.32
			c-0.11-0.01-0.19-0.11-0.17-0.22c0.01-0.11,0.11-0.18,0.22-0.17L158.86,129.58z"/>
	</g>
	<g>
		<path class="st4" d="M156.01,125.89c0.01,0.11-0.06,0.21-0.17,0.22l-2.43,0.3c-0.01,0-0.02,0-0.02,0c-0.1,0-0.18-0.07-0.2-0.17
			c-0.01-0.11,0.06-0.21,0.17-0.22l2.43-0.3C155.9,125.71,156,125.78,156.01,125.89z"/>
	</g>
	<g>
		<path class="st4" d="M155.89,121.76c0.04,0.1-0.01,0.22-0.11,0.26l-2.94,1.22c-0.03,0.01-0.05,0.02-0.08,0.02
			c-0.08,0-0.15-0.05-0.18-0.12c-0.04-0.1,0.01-0.22,0.11-0.26l2.94-1.22C155.73,121.61,155.85,121.66,155.89,121.76z"/>
	</g>
	<g>
		<path class="st4" d="M153.9,128.96c0.11,0.01,0.18,0.11,0.17,0.22c-0.01,0.1-0.1,0.17-0.2,0.17c-0.01,0-0.02,0-0.02,0l-0.98-0.12
			c-0.11-0.01-0.19-0.11-0.17-0.22c0.01-0.11,0.11-0.18,0.22-0.17L153.9,128.96z"/>
	</g>
	<g>
		<path class="st4" d="M153.05,126.26c0.01,0.11-0.06,0.21-0.17,0.22l-5.6,0.69c-0.01,0-0.02,0-0.02,0c-0.1,0-0.18-0.07-0.2-0.17
			c-0.01-0.11,0.06-0.21,0.17-0.22l5.6-0.69C152.94,126.07,153.03,126.15,153.05,126.26z"/>
	</g>
	<g>
		<path class="st4" d="M152.65,131.99c0.1,0.04,0.15,0.16,0.11,0.26c-0.03,0.08-0.1,0.12-0.18,0.12c-0.03,0-0.05,0-0.08-0.02
			l-2.94-1.23c-0.1-0.04-0.15-0.16-0.11-0.26c0.04-0.1,0.16-0.15,0.26-0.11L152.65,131.99z"/>
	</g>
	<g>
		<path class="st4" d="M152.26,123.27c0.04,0.1-0.01,0.22-0.11,0.26l-1.54,0.64c-0.03,0.01-0.05,0.02-0.08,0.02
			c-0.08,0-0.15-0.05-0.18-0.12c-0.04-0.1,0.01-0.22,0.11-0.26l1.54-0.64C152.1,123.12,152.22,123.17,152.26,123.27z"/>
	</g>
	<g>
		<path class="st4" d="M151.57,128.66c0.11,0.01,0.18,0.11,0.17,0.22c-0.01,0.1-0.1,0.17-0.2,0.17c-0.01,0-0.02,0-0.03,0l-1.72-0.23
			c-0.11-0.01-0.18-0.11-0.17-0.22c0.01-0.11,0.11-0.18,0.22-0.17L151.57,128.66z"/>
	</g>
	<g>
		<path class="st4" d="M146.81,128.06c0.11,0.01,0.19,0.11,0.17,0.22c-0.01,0.1-0.1,0.17-0.2,0.17c-0.01,0-0.02,0-0.02,0l-1.27-0.16
			c-0.11-0.01-0.18-0.11-0.17-0.22c0.01-0.11,0.11-0.18,0.22-0.17L146.81,128.06z"/>
	</g>
	<g>
		<path class="st4" d="M146.97,125.48c0.04,0.1-0.01,0.22-0.11,0.26l-1.21,0.5c-0.03,0.01-0.05,0.02-0.08,0.02
			c-0.08,0-0.15-0.05-0.18-0.12c-0.04-0.1,0.01-0.22,0.11-0.26l1.21-0.5C146.81,125.33,146.93,125.38,146.97,125.48z"/>
	</g>
	<g>
		<path class="st4" d="M146.6,127.06c0.01,0.11-0.06,0.21-0.17,0.22l-1.89,0.23c-0.01,0-0.02,0-0.02,0c-0.1,0-0.18-0.07-0.2-0.17
			c-0.01-0.11,0.06-0.21,0.17-0.22l1.89-0.23C146.49,126.87,146.59,126.95,146.6,127.06z"/>
	</g>
	<g>
		<polygon class="st5" points="145.47,141.15 145.47,141.37 145.47,141.37 145.45,141.15 		"/>
	</g>
	<g>
		<polygon class="st5" points="145.47,140.58 145.47,140.92 145.42,140.91 145.38,140.59 		"/>
	</g>
	<g>
		<polygon class="st5" points="145.42,139.83 145.42,139.99 145.31,139.98 145.3,139.84 		"/>
	</g>
	<g>
		<polygon class="st5" points="145.36,140.17 145.36,140.39 145.34,140.17 		"/>
	</g>
	<g>
		<polygon class="st5" points="145.3,139.18 145.3,139.63 145.28,139.63 145.22,139.18 		"/>
	</g>
	<g>
		<polygon class="st5" points="145.3,138.7 145.3,138.98 145.2,138.97 145.17,138.7 		"/>
	</g>
	<g>
		<polygon class="st5" points="145.2,137.88 145.2,138.33 145.13,138.33 145.08,137.88 		"/>
	</g>
	<g>
		<polygon class="st5" points="145.2,137.21 145.2,137.55 145.04,137.54 145,137.22 		"/>
	</g>
	<g>
		<path class="st0" d="M144.73,128.11c-0.04,0-0.07,0-0.11,0.01c0-0.04,0-0.08-0.01-0.12L144.73,128.11z"/>
	</g>
	<g>
		<path class="st4" d="M142.64,127.66c0,0.05,0,0.1-0.01,0.15l-0.22,0c-0.26,0-0.52,0-0.78-0.01c-0.26,0-0.52,0-0.78,0.01
			c-0.08,0-0.16,0-0.23,0v-0.15c0-0.56,0.45-1.01,1.01-1.01S142.64,127.1,142.64,127.66z"/>
	</g>
	<g>
		<path class="st4" d="M142.4,128.18l0.09,0c-0.18,0.29-0.5,0.48-0.86,0.48h-1.01v-0.49c0.08,0,0.16,0,0.23,0
			c0.26,0,0.52,0,0.78,0.01C141.88,128.19,142.14,128.19,142.4,128.18z"/>
	</g>
	<g>
		<path class="st0" d="M138.52,128.11l0.11-0.11c0,0.04,0,0.08-0.01,0.12L138.52,128.11z"/>
	</g>
	<g>
		<path class="st4" d="M138.49,126.09c0.1,0.04,0.15,0.16,0.11,0.26c-0.03,0.08-0.1,0.12-0.18,0.12c-0.03,0-0.05-0.01-0.08-0.02
			l-2.62-1.09c-0.1-0.04-0.15-0.16-0.11-0.26c0.04-0.1,0.16-0.15,0.26-0.11L138.49,126.09z"/>
	</g>
	<g>
		<path class="st0" d="M138.53,129.39c0,0.02,0,0.04-0.01,0.05c0-0.02,0-0.04-0.01-0.05C138.52,129.39,138.53,129.39,138.53,129.39z
			"/>
	</g>
	<g>
		<path class="st4" d="M138.2,127.02c0.11,0.01,0.18,0.11,0.17,0.22c-0.01,0.1-0.1,0.17-0.2,0.17c-0.01,0-0.02,0-0.02,0l-1.59-0.2
			c-0.11-0.01-0.18-0.11-0.17-0.22c0.01-0.11,0.11-0.18,0.22-0.17L138.2,127.02z"/>
	</g>
	<g>
		<path class="st4" d="M137.82,128.15c0.01,0.11-0.06,0.21-0.17,0.22l-0.4,0.05c-0.01,0-0.02,0-0.02,0c-0.1,0-0.18-0.07-0.2-0.17
			c-0.01-0.11,0.06-0.21,0.17-0.22l0.4-0.05C137.71,127.96,137.81,128.04,137.82,128.15z"/>
	</g>
	<g>
		<path class="st4" d="M137.62,129.37c0.04,0.1-0.01,0.22-0.11,0.26l-5.21,2.17c-0.03,0.01-0.05,0.02-0.08,0.02
			c-0.08,0-0.15-0.05-0.18-0.12c-0.04-0.1,0.01-0.22,0.11-0.26l5.21-2.17C137.46,129.23,137.58,129.27,137.62,129.37z"/>
	</g>
	<g>
		<path class="st4" d="M136.52,128.31c0.01,0.11-0.06,0.21-0.17,0.22l-2.78,0.35c-0.01,0-0.02,0-0.02,0c-0.1,0-0.18-0.07-0.2-0.17
			c-0.01-0.11,0.06-0.21,0.17-0.22l2.78-0.35C136.4,128.12,136.5,128.2,136.52,128.31z"/>
	</g>
	<g>
		<path class="st4" d="M134.75,124.52c0.1,0.04,0.15,0.16,0.11,0.26c-0.03,0.08-0.1,0.12-0.18,0.12c-0.03,0-0.05,0-0.08-0.02
			l-5.84-2.44c-0.1-0.04-0.15-0.16-0.11-0.26c0.04-0.1,0.16-0.15,0.26-0.11L134.75,124.52z"/>
	</g>
	<g>
		<path class="st4" d="M133.73,126.47c0.11,0.01,0.19,0.11,0.17,0.22c-0.01,0.1-0.1,0.17-0.2,0.17c-0.01,0-0.02,0-0.02,0l-1.42-0.18
			c-0.11-0.01-0.18-0.11-0.17-0.22c0.01-0.11,0.11-0.19,0.22-0.17L133.73,126.47z"/>
	</g>
	<g>
		<path class="st4" d="M131.92,128.88c0.01,0.11-0.06,0.21-0.17,0.22l-4.72,0.59c-0.01,0-0.02,0-0.02,0c-0.1,0-0.18-0.07-0.2-0.17
			c-0.01-0.11,0.06-0.21,0.17-0.22l4.72-0.59C131.81,128.69,131.91,128.77,131.92,128.88z"/>
	</g>
	<g>
		<path class="st4" d="M130.78,132.23c0.04,0.1-0.01,0.22-0.11,0.26l-2.55,1.06c-0.02,0.01-0.05,0.02-0.08,0.02
			c-0.08,0-0.15-0.05-0.18-0.12c-0.04-0.1,0.01-0.22,0.11-0.26l2.55-1.06C130.62,132.08,130.74,132.13,130.78,132.23z"/>
	</g>
	<g>
		<path class="st4" d="M130.17,126.03c0.11,0.01,0.18,0.11,0.17,0.22c-0.01,0.1-0.1,0.17-0.2,0.17c-0.01,0-0.02,0-0.02,0l-2.78-0.34
			c-0.11-0.01-0.18-0.11-0.17-0.22c0.01-0.11,0.11-0.18,0.22-0.17L130.17,126.03z"/>
	</g>
	<g>
		<path class="st4" d="M127.94,121.68c0.1,0.04,0.15,0.16,0.11,0.26c-0.03,0.08-0.1,0.12-0.18,0.12c-0.03,0-0.05-0.01-0.08-0.02
			l-2.15-0.9c-0.1-0.04-0.15-0.16-0.11-0.26c0.04-0.1,0.16-0.15,0.26-0.11L127.94,121.68z"/>
	</g>
	<g>
		<path class="st4" d="M126.41,125.56c0.11,0.01,0.18,0.11,0.17,0.22c-0.01,0.1-0.1,0.17-0.2,0.17c-0.01,0-0.02,0-0.02,0l-0.66-0.08
			c-0.11-0.01-0.18-0.11-0.17-0.22c0.01-0.11,0.11-0.18,0.22-0.17L126.41,125.56z"/>
	</g>
	<g>
		<path class="st4" d="M126.24,129.58c0.01,0.11-0.06,0.21-0.17,0.22l-4.12,0.51c-0.01,0-0.02,0-0.02,0c-0.1,0-0.18-0.07-0.2-0.17
			c-0.01-0.11,0.06-0.21,0.17-0.22l4.12-0.51C126.13,129.4,126.23,129.48,126.24,129.58z"/>
	</g>
	<g>
		<path class="st4" d="M123.31,135.34c0.04,0.1-0.01,0.22-0.11,0.26l-1.17,0.49c-0.03,0.01-0.05,0.02-0.08,0.02
			c-0.08,0-0.15-0.05-0.18-0.12c-0.04-0.1,0.01-0.22,0.11-0.26l1.18-0.49C123.15,135.19,123.27,135.24,123.31,135.34z"/>
	</g>
	<g>
		<path class="st4" d="M123.12,119.68c0.1,0.04,0.15,0.16,0.11,0.26c-0.03,0.08-0.11,0.12-0.18,0.12c-0.03,0-0.05,0-0.08-0.02
			l-1.09-0.45c-0.1-0.04-0.15-0.16-0.11-0.26s0.16-0.15,0.26-0.11L123.12,119.68z"/>
	</g>
	<g>
		<path class="st4" d="M122.41,125.07c0.11,0.01,0.18,0.11,0.17,0.22c-0.01,0.1-0.1,0.17-0.2,0.17c-0.01,0-0.02,0-0.02,0l-0.45-0.06
			c-0.11-0.01-0.18-0.11-0.17-0.22c0.01-0.11,0.11-0.18,0.22-0.17L122.41,125.07z"/>
	</g>
	<g>
		<path class="st1" d="M143.94,125.59h-4.63c0.02-0.22,0.15-0.43,0.42-0.6c1.41-0.9,1.9-2.16,1.9-2.16s0.48,1.25,1.9,2.16
			C143.79,125.16,143.92,125.37,143.94,125.59z"/>
	</g>
	<g>
		<path class="st1" d="M144.33,131.26c0,0,0.05,0,0.51,0c0.46,0,0.42-0.49,0.42-0.49s0.02-0.71,0-1c-0.02-0.29-0.29-0.35-0.29-0.35
			l-0.68,0l-0.19-1.28l0.51-0.03l0.1,1.3l0.13-1.53l-0.79-0.04l-0.27-1.89h-4.33l-0.27,1.89l-0.79,0.04l0.13,1.49l0.1-1.26
			l0.52,0.03l-0.18,1.26c0,0-0.11,0-0.51,0c-0.4,0-0.46,0.38-0.46,0.38s0,0.51,0,0.98c0,0.47,0.33,0.51,0.33,0.51h0.43l-0.5,5.07
			c0.02,3.21,3.16,4.13,3.16,4.13c4.05,1.65,4.34,3.43,4.34,3.43L144.33,131.26z"/>
	</g>
	<g>
		<path class="st1" d="M138.03,138.43c0,0-0.07,2.93,3.11,4.13s4.6,2.73,4.74,4.04s0.94,8.05,0.94,8.05s-0.17-1.69-2.19-3.29
			s-7.43-1.86-7.05-6.76C137.95,139.69,138.03,138.43,138.03,138.43z"/>
	</g>
	<g>
		<path class="st4" d="M140.62,127.8h2.01c0,0,0.1-0.83-0.66-1.1C141.19,126.43,140.55,127.07,140.62,127.8z"/>
	</g>
	<g>
		<path class="st4" d="M140.62,128.18l1.87,0c0,0-0.29,0.48-0.79,0.48s-1.08,0-1.08,0V128.18z"/>
	</g>
</g>
</svg>
