<?xml version="1.0" encoding="utf-8"?>
<!-- Generator: Adobe Illustrator 25.0.0, SVG Export Plug-In . SVG Version: 6.00 Build 0)  -->
<svg version="1.1" id="圖層_1" xmlns="http://www.w3.org/2000/svg" xmlns:xlink="http://www.w3.org/1999/xlink" x="0px" y="0px"
	 viewBox="0 0 60 60" style="enable-background:new 0 0 60 60;" xml:space="preserve">
<style type="text/css">
	.st0{clip-path:url(#SVGID_2_);}
	.st1{clip-path:url(#SVGID_4_);fill:#231815;}
	.st2{clip-path:url(#SVGID_4_);fill:#040000;}
	.st3{clip-path:url(#SVGID_4_);fill:#F6CF5F;}
	.st4{clip-path:url(#SVGID_4_);fill:#FFFFFF;}
</style>
<g>
	<g>
		<defs>
			<rect id="SVGID_1_" x="3.47" y="2.06" width="53.05" height="53.05"/>
		</defs>
		<clipPath id="SVGID_2_">
			<use xlink:href="#SVGID_1_"  style="overflow:visible;"/>
		</clipPath>
		<g class="st0">
			<defs>
				<rect id="SVGID_3_" x="3.47" y="2.06" width="53.05" height="53.05"/>
			</defs>
			<clipPath id="SVGID_4_">
				<use xlink:href="#SVGID_3_"  style="overflow:visible;"/>
			</clipPath>
			<path class="st1" d="M16.44,46.89c0.01,0.12,0.02,0.22,0.02,0.29s0,0.21,0,0.39c0,0.19,0,0.33-0.01,0.42
				c-0.01,0.25-0.09,0.43-0.21,0.55c0.2,0.11,0.33,0.31,0.38,0.6c0.04,0.21,0.06,0.44,0.06,0.69s0,0.41,0,0.5
				c0,0.08-0.01,0.18-0.03,0.3c-0.02,0.12-0.04,0.21-0.07,0.27c-0.03,0.06-0.08,0.13-0.15,0.21c-0.06,0.08-0.14,0.13-0.23,0.16
				c-0.23,0.09-0.51,0.14-0.83,0.14l-0.88-0.05v-5.15l0.74-0.07c0.53,0,0.87,0.1,1.02,0.29c0.06,0.08,0.1,0.14,0.13,0.2
				C16.4,46.69,16.42,46.77,16.44,46.89 M15.14,48.38c0.25,0,0.41-0.01,0.48-0.03c0.07-0.02,0.13-0.03,0.17-0.05
				c0.04-0.01,0.07-0.04,0.1-0.08c0.03-0.04,0.05-0.08,0.06-0.1c0.01-0.03,0.02-0.08,0.03-0.15C16,47.89,16,47.82,16,47.77v-0.24
				c0-0.43-0.04-0.68-0.11-0.76c-0.1-0.11-0.21-0.18-0.34-0.2c-0.13-0.02-0.26-0.02-0.41-0.02H14.9l0.03,0.18v1.47l-0.03,0.18H15.14
				z M15.36,51.01c0.29,0,0.51-0.05,0.67-0.16c0.1-0.07,0.16-0.23,0.18-0.48c0-0.08,0.01-0.19,0.01-0.34v-0.29
				c0-0.22,0-0.35-0.01-0.39c-0.01-0.04-0.02-0.09-0.03-0.16c-0.01-0.07-0.03-0.11-0.05-0.14c-0.02-0.02-0.04-0.05-0.07-0.1
				c-0.03-0.04-0.06-0.07-0.1-0.08c-0.04-0.01-0.08-0.03-0.13-0.05c-0.08-0.03-0.21-0.04-0.39-0.04H14.9l0.03,0.18v1.87l-0.03,0.18
				H15.36z"/>
			<path class="st1" d="M19.88,51.36c-0.24,0-0.39-0.01-0.45-0.04c-0.06-0.03-0.12-0.12-0.19-0.29l-0.96-2.11H17.9l0.03,0.18v1.93
				h0.01c0,0.16-0.02,0.26-0.05,0.29c-0.04,0.03-0.16,0.04-0.36,0.04h-0.04v-5.15l0.81-0.07c0.49,0,0.81,0.1,0.96,0.29
				c0.06,0.08,0.1,0.14,0.13,0.2c0.03,0.06,0.05,0.15,0.06,0.26c0.02,0.16,0.03,0.35,0.03,0.57c0,0.23,0,0.4-0.01,0.51
				c-0.01,0.12-0.02,0.24-0.05,0.36c-0.03,0.13-0.07,0.22-0.12,0.3c-0.12,0.17-0.3,0.26-0.56,0.28l1.18,2.45H19.88z M18.29,48.52
				c0.24,0,0.43-0.05,0.56-0.14c0.08-0.06,0.13-0.22,0.14-0.47c0-0.08,0.01-0.2,0.01-0.38c0-0.18,0-0.3-0.01-0.38
				c0-0.08-0.02-0.16-0.04-0.26c-0.02-0.1-0.06-0.17-0.1-0.21c-0.13-0.09-0.32-0.14-0.56-0.14h-0.36v1.79l-0.03,0.18H18.29z"/>
			<path class="st1" d="M21.16,51.36h-0.04c-0.2,0-0.32-0.01-0.36-0.04c-0.04-0.03-0.05-0.12-0.05-0.29v-4.81h0.04
				c0.2,0,0.32,0.01,0.36,0.04c0.04,0.03,0.05,0.12,0.05,0.29V51.36z"/>
			<path class="st1" d="M23.99,49.17c0-0.2,0.01-0.32,0.04-0.36c0.03-0.04,0.12-0.05,0.29-0.05h0.12v2.53
				c-0.07,0.01-0.18,0.03-0.31,0.05c-0.28,0.05-0.49,0.07-0.65,0.07s-0.29-0.02-0.4-0.05c-0.11-0.03-0.2-0.07-0.28-0.11
				c-0.08-0.05-0.15-0.11-0.21-0.21c-0.06-0.09-0.11-0.18-0.15-0.25c-0.04-0.08-0.07-0.19-0.1-0.33c-0.03-0.14-0.05-0.26-0.06-0.36
				c-0.01-0.1-0.02-0.24-0.03-0.42c-0.01-0.19-0.01-0.33-0.01-0.44v-0.92c0-0.36,0.01-0.6,0.02-0.73c0.02-0.12,0.03-0.25,0.05-0.39
				c0.02-0.14,0.04-0.24,0.07-0.31c0.03-0.07,0.07-0.15,0.11-0.25c0.04-0.09,0.09-0.17,0.15-0.22c0.06-0.05,0.13-0.1,0.2-0.15
				c0.14-0.09,0.34-0.13,0.6-0.13l0.86,0.14c0,0.14-0.03,0.22-0.08,0.26c-0.05,0.03-0.11,0.05-0.16,0.05h-0.12l-0.5-0.04
				c-0.2,0-0.35,0.06-0.44,0.18c-0.06,0.06-0.1,0.12-0.14,0.19c-0.04,0.06-0.07,0.15-0.09,0.28c-0.02,0.12-0.04,0.23-0.05,0.32
				c-0.01,0.09-0.03,0.22-0.03,0.38c-0.01,0.17-0.01,0.3-0.01,0.4v0.91c0,0.36,0.01,0.61,0.03,0.74c0.02,0.13,0.04,0.26,0.06,0.38
				c0.02,0.13,0.05,0.22,0.09,0.29s0.09,0.13,0.14,0.2c0.1,0.12,0.25,0.19,0.44,0.19c0.15,0,0.34-0.02,0.58-0.07l-0.03-0.18V49.17z"
				/>
			<path class="st1" d="M27.59,51.36h-0.03c-0.2,0-0.32-0.01-0.36-0.04c-0.04-0.03-0.05-0.12-0.05-0.29v-2.07l0.03-0.18h-1.36
				l0.03,0.18v2.07c0,0.16-0.02,0.26-0.05,0.29c-0.04,0.03-0.16,0.04-0.36,0.04H25.4v-5.13h0.03c0.2,0,0.32,0.01,0.36,0.04
				c0.04,0.03,0.05,0.12,0.05,0.29v1.65l-0.03,0.18h1.36l-0.03-0.18v-1.98h0.03c0.2,0,0.32,0.01,0.36,0.04
				c0.04,0.03,0.05,0.12,0.05,0.29V51.36z"/>
			<path class="st1" d="M29.13,51.36h-0.06v-4.58l0.03-0.18h-0.8v-0.38h2.02v0.38h-0.81l0.03,0.18v4.25c0,0.16-0.02,0.26-0.05,0.29
				C29.46,51.35,29.34,51.36,29.13,51.36"/>
			<path class="st1" d="M33.23,51.36H33.2c-0.2,0-0.32-0.01-0.36-0.04c-0.04-0.03-0.05-0.12-0.05-0.29v-2.07l0.03-0.18h-1.36
				l0.03,0.18v2.07c0,0.16-0.02,0.26-0.05,0.29c-0.04,0.03-0.16,0.04-0.36,0.04h-0.03v-5.13h0.03c0.2,0,0.32,0.01,0.36,0.04
				c0.04,0.03,0.05,0.12,0.05,0.29v1.65l-0.03,0.18h1.36l-0.03-0.18v-1.98h0.03c0.2,0,0.32,0.01,0.36,0.04
				c0.04,0.03,0.05,0.12,0.05,0.29V51.36z"/>
			<path class="st1" d="M36.47,50.8c-0.17,0.41-0.5,0.61-0.99,0.61c-0.49,0-0.83-0.2-1-0.61c-0.17-0.41-0.26-1.09-0.26-2.05
				c0-0.96,0.09-1.63,0.26-2.03c0.17-0.39,0.5-0.59,1-0.59c0.49,0,0.83,0.2,0.99,0.59c0.17,0.39,0.25,1.07,0.25,2.03
				C36.73,49.72,36.64,50.4,36.47,50.8 M35.48,51.01c0.3,0,0.5-0.18,0.61-0.55c0.11-0.36,0.16-0.93,0.16-1.7
				c0-0.74-0.05-1.29-0.15-1.63c-0.11-0.38-0.32-0.58-0.62-0.58c-0.3,0-0.5,0.18-0.61,0.53c-0.11,0.35-0.16,0.85-0.16,1.48
				c0,0.63,0.02,1.11,0.06,1.42C34.84,50.66,35.09,51.01,35.48,51.01"/>
			<path class="st1" d="M39.57,49.25v-3.02h0.05c0.2,0,0.32,0.01,0.36,0.04c0.04,0.03,0.05,0.12,0.05,0.29v2.69
				c0,0.37,0,0.63-0.01,0.8c-0.01,0.17-0.03,0.36-0.07,0.58c-0.04,0.22-0.1,0.37-0.18,0.46c-0.2,0.22-0.51,0.33-0.91,0.33
				c-0.4,0-0.67-0.08-0.8-0.24c-0.06-0.07-0.1-0.12-0.14-0.17c-0.04-0.05-0.07-0.13-0.09-0.25c-0.02-0.11-0.04-0.21-0.06-0.28
				c-0.01-0.07-0.02-0.19-0.03-0.35c-0.01-0.16-0.01-0.29-0.01-0.38v-3.51h0.05c0.2,0,0.32,0.01,0.36,0.04
				c0.04,0.03,0.05,0.12,0.05,0.29v2.69v0.27c0,0.15,0,0.28,0,0.38c0,0.11,0.01,0.24,0.02,0.39c0.01,0.15,0.03,0.26,0.06,0.33
				c0.03,0.06,0.06,0.13,0.11,0.2c0.09,0.12,0.24,0.18,0.48,0.18c0.32,0,0.52-0.12,0.59-0.35C39.53,50.42,39.57,49.95,39.57,49.25"
				/>
			<path class="st1" d="M43.04,49.7v0.16c0,0.48-0.04,0.81-0.13,1.01c-0.17,0.36-0.53,0.54-1.09,0.55l-1.03-0.14v-0.4l1.04,0.07
				c0.32,0,0.53-0.07,0.62-0.21c0.03-0.06,0.06-0.1,0.08-0.14c0.02-0.04,0.03-0.1,0.04-0.18c0.01-0.09,0.01-0.15,0.01-0.19
				c0-0.04,0-0.11,0-0.22c0-0.1,0-0.18,0-0.21c0-0.23-0.21-0.53-0.63-0.89c-0.17-0.15-0.34-0.3-0.52-0.46
				c-0.18-0.16-0.32-0.33-0.45-0.53c-0.12-0.19-0.18-0.38-0.18-0.55c0-0.17,0-0.28,0-0.34c0-0.06,0.01-0.14,0.02-0.25
				c0.01-0.11,0.03-0.18,0.06-0.23c0.03-0.05,0.07-0.1,0.12-0.17c0.05-0.07,0.12-0.11,0.21-0.14c0.23-0.07,0.48-0.1,0.73-0.1
				l0.76,0.14c0,0.18-0.05,0.28-0.14,0.29c-0.04,0-0.1,0-0.17,0L42,46.54c-0.34,0-0.55,0.07-0.63,0.22
				c-0.05,0.08-0.08,0.15-0.09,0.22c-0.01,0.07-0.02,0.17-0.02,0.3s0.04,0.26,0.13,0.4c0.09,0.14,0.2,0.26,0.33,0.37
				c0.13,0.11,0.28,0.23,0.43,0.37c0.15,0.13,0.29,0.26,0.43,0.38c0.13,0.12,0.24,0.26,0.33,0.42C43,49.38,43.04,49.54,43.04,49.7"
				/>
			<polygon class="st1" points="45.8,51.36 43.85,51.36 43.85,46.23 45.73,46.23 45.73,46.61 44.29,46.61 44.32,46.79 44.32,48.21 
				44.29,48.38 45.63,48.38 45.63,48.79 44.29,48.79 44.32,48.97 44.32,50.78 44.29,50.96 45.8,50.96 			"/>
			<path class="st2" d="M16.13,54.34v-0.73v-0.03c0-0.32-0.01-0.52-0.03-0.6c-0.02-0.07-0.08-0.11-0.19-0.11l-0.31,0.1l0.01,0.08
				v1.43c-0.09,0-0.15-0.01-0.17-0.02c-0.02-0.01-0.02-0.06-0.02-0.13l0-0.73v-0.09v-0.13c0-0.04,0-0.07,0-0.11
				c0-0.03,0-0.08-0.01-0.14c0-0.06-0.01-0.1-0.02-0.12c-0.01-0.02-0.02-0.05-0.04-0.08c-0.03-0.05-0.08-0.07-0.15-0.07L14.9,53
				l0.01,0.08v1.42c-0.1,0-0.15-0.01-0.17-0.02c-0.02-0.01-0.02-0.06-0.02-0.13v-1.62c0.1,0,0.15,0,0.17,0.01
				c0.02,0.01,0.02,0.04,0.02,0.09l0.3-0.12c0.16,0,0.27,0.05,0.35,0.14l0.35-0.14c0.2,0,0.32,0.05,0.36,0.14
				c0.04,0.09,0.06,0.35,0.06,0.78v0.88c-0.1,0-0.16-0.01-0.17-0.02C16.14,54.46,16.13,54.42,16.13,54.34"/>
			<path class="st2" d="M18.33,53.6v-0.88c0.1,0,0.15,0.01,0.17,0.02c0.02,0.01,0.02,0.06,0.02,0.13v0.72
				c0,0.25,0.01,0.43,0.02,0.52c0.01,0.09,0.04,0.15,0.07,0.18c0.03,0.03,0.07,0.04,0.12,0.04l0.33-0.15l-0.02-0.08v-1.38
				c0.1,0,0.15,0.01,0.17,0.02c0.02,0.01,0.02,0.06,0.02,0.13v1.62c-0.1,0-0.15-0.01-0.17-0.02c-0.02-0.01-0.02-0.05-0.02-0.12
				l-0.3,0.15c-0.14,0-0.25-0.04-0.33-0.13c-0.05-0.06-0.08-0.2-0.09-0.43C18.34,53.88,18.33,53.77,18.33,53.6"/>
			<path class="st2" d="M21.89,54.41c-0.03,0.03-0.06,0.06-0.11,0.07c-0.04,0.02-0.1,0.02-0.16,0.02c-0.06,0-0.19-0.02-0.39-0.05
				v-0.17c0.01,0,0.06,0.01,0.17,0.02c0.1,0.01,0.18,0.02,0.23,0.02c0.12,0,0.18-0.11,0.18-0.34v-0.05c0-0.07-0.07-0.16-0.2-0.26
				c-0.13-0.1-0.23-0.19-0.3-0.27c-0.06-0.08-0.1-0.15-0.1-0.23s0-0.13,0-0.16c0-0.03,0.01-0.07,0.02-0.12
				c0.01-0.05,0.03-0.08,0.06-0.1c0.07-0.05,0.17-0.08,0.31-0.08l0.31,0.05c0,0.1-0.04,0.14-0.12,0.14c-0.02,0-0.03,0-0.05,0
				l-0.13-0.02c-0.11,0-0.17,0.02-0.2,0.07c-0.02,0.04-0.03,0.1-0.03,0.18s0.09,0.19,0.26,0.32c0.08,0.06,0.14,0.11,0.18,0.14
				c0.04,0.03,0.08,0.08,0.12,0.14c0.04,0.06,0.06,0.11,0.06,0.17c0,0.05,0,0.1,0,0.14c0,0.04-0.01,0.08-0.01,0.14
				c-0.01,0.05-0.02,0.1-0.04,0.13C21.94,54.34,21.92,54.38,21.89,54.41"/>
			<path class="st2" d="M24.17,52.38c-0.03,0.03-0.07,0.04-0.11,0.04c-0.04,0-0.08-0.01-0.11-0.04c-0.03-0.03-0.04-0.07-0.04-0.11
				c0-0.04,0.01-0.08,0.04-0.11c0.03-0.03,0.07-0.04,0.11-0.04c0.04,0,0.08,0.01,0.11,0.04c0.03,0.03,0.04,0.06,0.04,0.11
				C24.22,52.32,24.2,52.35,24.17,52.38 M23.97,54.36v-1.63c0.1,0,0.15,0.01,0.17,0.02c0.02,0.01,0.02,0.06,0.02,0.13v1.63
				c-0.1,0-0.15-0.01-0.17-0.02C23.98,54.48,23.97,54.43,23.97,54.36"/>
			<path class="st2" d="M26.21,53.61V53.4c0-0.16,0-0.26,0.01-0.3c0.01-0.04,0.02-0.09,0.03-0.13c0.01-0.05,0.02-0.08,0.04-0.1
				c0.01-0.02,0.03-0.04,0.05-0.07c0.02-0.03,0.05-0.04,0.08-0.05c0.07-0.03,0.15-0.04,0.23-0.04l0.27,0.04
				c0,0.1-0.04,0.14-0.12,0.14c-0.02,0-0.03,0-0.05,0l-0.11-0.01c-0.11,0-0.18,0.05-0.2,0.14c-0.02,0.09-0.04,0.25-0.04,0.48
				c0,0.23,0,0.38,0,0.44c0,0.07,0.01,0.14,0.03,0.22c0.02,0.08,0.04,0.13,0.07,0.15c0.03,0.02,0.08,0.03,0.14,0.03l0.29-0.03v0.15
				l-0.29,0.06c-0.12,0-0.2-0.01-0.24-0.04c-0.04-0.03-0.07-0.05-0.09-0.07c-0.02-0.02-0.04-0.05-0.05-0.1
				c-0.01-0.05-0.02-0.09-0.03-0.12s-0.01-0.09-0.02-0.16C26.21,53.9,26.21,53.76,26.21,53.61"/>
			<path class="st2" d="M31.81,54.41c-0.03,0.03-0.06,0.06-0.11,0.07c-0.04,0.02-0.1,0.02-0.16,0.02c-0.06,0-0.19-0.02-0.39-0.05
				v-0.17c0.01,0,0.06,0.01,0.17,0.02c0.1,0.01,0.18,0.02,0.23,0.02c0.12,0,0.18-0.11,0.18-0.34v-0.05c0-0.07-0.07-0.16-0.2-0.26
				c-0.13-0.1-0.23-0.19-0.3-0.27c-0.06-0.08-0.1-0.15-0.1-0.23s0-0.13,0-0.16c0-0.03,0.01-0.07,0.02-0.12
				c0.01-0.05,0.03-0.08,0.06-0.1c0.07-0.05,0.17-0.08,0.31-0.08l0.31,0.05c0,0.1-0.04,0.14-0.12,0.14c-0.02,0-0.03,0-0.05,0
				l-0.13-0.02c-0.11,0-0.17,0.02-0.2,0.07c-0.02,0.04-0.03,0.1-0.03,0.18s0.09,0.19,0.26,0.32c0.08,0.06,0.14,0.11,0.18,0.14
				c0.04,0.03,0.08,0.08,0.12,0.14c0.04,0.06,0.06,0.11,0.06,0.17c0,0.05,0,0.1,0,0.14c0,0.04-0.01,0.08-0.01,0.14
				c-0.01,0.05-0.02,0.1-0.04,0.13C31.86,54.34,31.84,54.38,31.81,54.41"/>
			<path class="st2" d="M33.92,53.75v-0.76l0.01-0.08h-0.14v-0.18h0.14l-0.01-0.12v-0.14c0.1,0,0.15,0.01,0.17,0.02
				c0.02,0.01,0.02,0.06,0.02,0.13l-0.01,0.11h0.3c0,0.08-0.01,0.13-0.02,0.15c-0.01,0.02-0.06,0.03-0.14,0.03H34.1l0.01,0.08v0.76
				c0,0.25,0.01,0.41,0.02,0.49c0.01,0.07,0.05,0.11,0.11,0.11h0.22v0.15l-0.23,0.02c-0.15,0-0.24-0.05-0.27-0.14
				C33.94,54.28,33.92,54.07,33.92,53.75"/>
			<path class="st2" d="M36.31,53.6v-0.88c0.1,0,0.15,0.01,0.17,0.02c0.02,0.01,0.02,0.06,0.02,0.13v0.72
				c0,0.25,0.01,0.43,0.02,0.52c0.01,0.09,0.04,0.15,0.07,0.18c0.03,0.03,0.07,0.04,0.12,0.04l0.33-0.15l-0.02-0.08v-1.38
				c0.1,0,0.15,0.01,0.17,0.02c0.02,0.01,0.02,0.06,0.02,0.13v1.62c-0.1,0-0.15-0.01-0.17-0.02c-0.02-0.01-0.02-0.05-0.02-0.12
				l-0.3,0.15c-0.14,0-0.25-0.04-0.33-0.13c-0.05-0.06-0.08-0.2-0.09-0.43C36.31,53.88,36.31,53.77,36.31,53.6"/>
			<path class="st2" d="M39.21,53.97c0-0.07,0-0.17,0-0.3c0-0.13,0-0.21,0-0.26c0-0.05,0-0.11,0-0.17c0-0.07,0.01-0.12,0.01-0.15
				c0.01-0.03,0.01-0.07,0.02-0.12c0.01-0.04,0.02-0.08,0.04-0.1c0.02-0.02,0.03-0.05,0.06-0.07c0.02-0.03,0.05-0.04,0.08-0.05
				c0.08-0.03,0.16-0.04,0.24-0.04l0.24,0.09v-0.71c0.1,0,0.15,0.01,0.17,0.02s0.02,0.06,0.02,0.13v2.26c-0.1,0-0.15-0.01-0.17-0.02
				c-0.02-0.01-0.02-0.07-0.02-0.15l-0.26,0.2c-0.15,0-0.26-0.04-0.34-0.12C39.25,54.34,39.22,54.2,39.21,53.97 M39.41,53.18
				c-0.01,0.08-0.01,0.14-0.01,0.19s0,0.18,0,0.38c0,0.21,0.01,0.35,0.03,0.43c0.05,0.1,0.12,0.15,0.21,0.16l0.27-0.15l-0.01-0.08
				v-1.07l0.01-0.08l-0.27-0.09c-0.08,0-0.14,0.03-0.17,0.08C39.44,53.03,39.42,53.1,39.41,53.18"/>
			<path class="st2" d="M42.38,52.38c-0.03,0.03-0.07,0.04-0.11,0.04c-0.04,0-0.08-0.01-0.11-0.04c-0.03-0.03-0.04-0.07-0.04-0.11
				c0-0.04,0.01-0.08,0.04-0.11c0.03-0.03,0.07-0.04,0.11-0.04c0.04,0,0.08,0.01,0.11,0.04c0.03,0.03,0.04,0.06,0.04,0.11
				C42.42,52.32,42.4,52.35,42.38,52.38 M42.17,54.36v-1.63c0.1,0,0.15,0.01,0.17,0.02c0.02,0.01,0.02,0.06,0.02,0.13v1.63
				c-0.1,0-0.15-0.01-0.17-0.02C42.18,54.48,42.17,54.43,42.17,54.36"/>
			<path class="st2" d="M45.1,54.48c-0.03,0.01-0.05,0.01-0.05,0.01s-0.02,0-0.06,0.01c-0.04,0.01-0.08,0.01-0.14,0.01
				c-0.05,0-0.1,0-0.14-0.01c-0.04-0.01-0.08-0.02-0.11-0.04c-0.03-0.02-0.06-0.04-0.08-0.06c-0.02-0.02-0.04-0.05-0.05-0.1
				c-0.01-0.05-0.03-0.09-0.03-0.12c-0.01-0.03-0.01-0.09-0.02-0.16c0-0.08-0.01-0.14-0.01-0.19c0-0.05,0-0.13,0-0.23
				c0-0.11,0-0.18,0-0.23c0-0.05,0-0.11,0.01-0.18c0-0.08,0.01-0.13,0.02-0.16c0.01-0.03,0.02-0.07,0.03-0.12
				c0.01-0.05,0.03-0.08,0.05-0.1c0.02-0.02,0.05-0.04,0.08-0.06c0.05-0.04,0.12-0.05,0.21-0.05c0.09,0,0.15,0,0.19,0.01
				c0.04,0.01,0.07,0.02,0.1,0.02s0.06,0.03,0.08,0.05c0.02,0.03,0.04,0.05,0.06,0.07c0.02,0.02,0.03,0.05,0.04,0.1
				c0.01,0.05,0.02,0.09,0.02,0.12c0.01,0.03,0.01,0.08,0.01,0.15c0,0.07,0,0.13,0,0.17v0.2v0.01v0.2c0,0.15,0,0.25-0.01,0.29
				c-0.01,0.05-0.02,0.09-0.03,0.14c-0.01,0.05-0.02,0.08-0.04,0.1c-0.02,0.02-0.03,0.04-0.06,0.07
				C45.16,54.45,45.13,54.47,45.1,54.48 M45.11,53.68v-0.11c0-0.29-0.01-0.47-0.04-0.54c-0.04-0.09-0.11-0.14-0.22-0.14
				c-0.09,0-0.15,0.02-0.18,0.07c-0.02,0.03-0.03,0.06-0.04,0.09c-0.01,0.03-0.02,0.07-0.02,0.14c-0.01,0.1-0.01,0.19-0.01,0.28
				v0.27c0,0.09,0,0.17,0,0.24c0,0.07,0.01,0.14,0.03,0.21c0.02,0.07,0.04,0.12,0.08,0.14c0.03,0.02,0.08,0.03,0.13,0.03
				c0.05,0,0.09,0,0.12-0.01c0.03-0.01,0.05-0.03,0.07-0.06c0.02-0.03,0.03-0.05,0.04-0.08c0.01-0.03,0.02-0.07,0.02-0.13
				C45.11,53.98,45.11,53.85,45.11,53.68"/>
			<polygon class="st1" points="30.02,45.67 29.99,45.66 29.95,45.64 30.06,45.51 			"/>
			<path class="st1" d="M35.57,44.15C35.57,44.16,35.57,44.16,35.57,44.15C35.57,44.16,35.57,44.16,35.57,44.15L35.57,44.15z"/>
			<path class="st3" d="M51.91,11.88c0.01,0.12-0.07,0.23-0.19,0.24l-3.8,0.47c-0.01,0-0.02,0-0.03,0c-0.11,0-0.2-0.08-0.21-0.19
				c-0.01-0.12,0.07-0.23,0.19-0.24l3.8-0.47C51.79,11.68,51.9,11.76,51.91,11.88"/>
			<path class="st3" d="M51.73,17.06c0.12,0.01,0.2,0.12,0.19,0.24c-0.01,0.11-0.11,0.19-0.21,0.19c-0.01,0-0.02,0-0.03,0
				l-0.91-0.11c-0.12-0.01-0.2-0.12-0.19-0.24c0.01-0.12,0.12-0.2,0.24-0.19L51.73,17.06z"/>
			<path class="st3" d="M51.9,5.47c0.05,0.11-0.01,0.24-0.12,0.28l-1.45,0.6c-0.03,0.01-0.06,0.02-0.08,0.02
				c-0.08,0-0.17-0.05-0.2-0.13C50.01,6.13,50.06,6,50.17,5.95l1.45-0.6C51.73,5.3,51.85,5.36,51.9,5.47"/>
			<path class="st3" d="M51.78,23.43c0.11,0.05,0.16,0.17,0.12,0.28c-0.03,0.08-0.12,0.13-0.2,0.13c-0.03,0-0.06-0.01-0.08-0.02
				l-0.83-0.35c-0.11-0.05-0.16-0.17-0.12-0.28c0.05-0.11,0.17-0.16,0.28-0.12L51.78,23.43z"/>
			<path class="st3" d="M49.52,22.49c0.11,0.05,0.16,0.17,0.12,0.28c-0.03,0.08-0.11,0.13-0.2,0.13c-0.03,0-0.06-0.01-0.08-0.02
				l-2.97-1.24c-0.11-0.05-0.16-0.17-0.12-0.28c0.05-0.11,0.17-0.16,0.28-0.12L49.52,22.49z"/>
			<path class="st3" d="M48.77,16.69c0.12,0.01,0.2,0.12,0.19,0.24c-0.01,0.11-0.11,0.19-0.21,0.19c-0.01,0-0.02,0-0.03,0l-2.8-0.35
				c-0.12-0.01-0.2-0.12-0.19-0.24c0.01-0.12,0.12-0.2,0.24-0.19L48.77,16.69z"/>
			<path class="st3" d="M45.65,12.66c0.01,0.12-0.07,0.23-0.19,0.24l-2.66,0.33c-0.01,0-0.02,0-0.03,0c-0.11,0-0.2-0.08-0.21-0.19
				c-0.01-0.12,0.07-0.23,0.19-0.24l2.66-0.33C45.53,12.45,45.64,12.54,45.65,12.66"/>
			<path class="st3" d="M45.51,8.13c0.05,0.11-0.01,0.24-0.12,0.28l-3.22,1.34c-0.03,0.01-0.06,0.02-0.08,0.02
				c-0.08,0-0.16-0.05-0.2-0.13c-0.05-0.11,0.01-0.24,0.12-0.28l3.22-1.34C45.34,7.97,45.47,8.02,45.51,8.13"/>
			<path class="st3" d="M43.34,16.02c0.12,0.01,0.2,0.12,0.19,0.24c-0.01,0.11-0.11,0.19-0.21,0.19c-0.01,0-0.02,0-0.03,0
				l-1.07-0.13c-0.12-0.01-0.2-0.12-0.19-0.24c0.01-0.12,0.12-0.2,0.24-0.19L43.34,16.02z"/>
			<path class="st3" d="M42.4,13.06c0.01,0.12-0.07,0.23-0.19,0.24l-6.13,0.76c-0.01,0-0.02,0-0.03,0c-0.11,0-0.2-0.08-0.21-0.19
				c-0.01-0.12,0.07-0.23,0.19-0.24l6.13-0.76C42.28,12.86,42.39,12.94,42.4,13.06"/>
			<path class="st3" d="M41.96,19.34c0.11,0.05,0.16,0.17,0.12,0.28c-0.03,0.08-0.11,0.13-0.2,0.13c-0.03,0-0.06,0-0.08-0.02
				l-3.22-1.34c-0.11-0.05-0.16-0.17-0.12-0.28c0.05-0.11,0.17-0.16,0.28-0.12L41.96,19.34z"/>
			<path class="st3" d="M41.54,9.79c0.05,0.11-0.01,0.24-0.12,0.28l-1.69,0.71c-0.03,0.01-0.06,0.02-0.08,0.02
				c-0.08,0-0.16-0.05-0.2-0.13c-0.05-0.11,0.01-0.24,0.12-0.28l1.69-0.71C41.36,9.62,41.49,9.68,41.54,9.79"/>
			<path class="st3" d="M40.79,15.69c0.12,0.02,0.2,0.12,0.19,0.24c-0.01,0.11-0.11,0.19-0.21,0.19c-0.01,0-0.02,0-0.03,0
				l-1.88-0.25c-0.12-0.02-0.2-0.12-0.19-0.24c0.02-0.12,0.12-0.2,0.24-0.19L40.79,15.69z"/>
			<path class="st3" d="M35.56,15.03c0.12,0.01,0.2,0.12,0.19,0.24c-0.01,0.11-0.11,0.19-0.21,0.19c-0.01,0-0.02,0-0.03,0
				l-1.39-0.17c-0.12-0.01-0.2-0.12-0.19-0.24c0.01-0.12,0.12-0.2,0.24-0.19L35.56,15.03z"/>
			<path class="st3" d="M35.74,12.2c0.05,0.11-0.01,0.24-0.12,0.28l-1.33,0.55c-0.03,0.01-0.06,0.02-0.08,0.02
				c-0.08,0-0.16-0.05-0.2-0.13c-0.05-0.11,0.01-0.24,0.12-0.28l1.33-0.55C35.57,12.04,35.69,12.09,35.74,12.2"/>
			<path class="st3" d="M35.34,13.94c0.01,0.12-0.07,0.23-0.19,0.24l-2.07,0.26c-0.01,0-0.02,0-0.03,0c-0.11,0-0.2-0.08-0.21-0.19
				c-0.01-0.12,0.07-0.23,0.19-0.24l2.07-0.26C35.21,13.73,35.32,13.82,35.34,13.94"/>
			<polygon class="st4" points="34.1,29.37 34.1,29.62 34.1,29.62 34.07,29.37 			"/>
			<polygon class="st4" points="34.1,28.75 34.1,29.12 34.04,29.12 34,28.77 			"/>
			<polygon class="st4" points="34.04,27.93 34.04,28.1 33.93,28.09 33.91,27.94 			"/>
			<polygon class="st4" points="33.98,28.3 33.98,28.54 33.95,28.3 			"/>
			<polygon class="st4" points="33.92,27.22 33.92,27.71 33.88,27.71 33.83,27.22 			"/>
			<polygon class="st4" points="33.92,26.69 33.92,27 33.8,26.99 33.77,26.69 			"/>
			<polygon class="st4" points="33.8,25.79 33.8,26.29 33.72,26.28 33.67,25.8 			"/>
			<polygon class="st4" points="33.8,25.06 33.8,25.43 33.63,25.42 33.59,25.07 			"/>
			<path class="st1" d="M33.29,15.08c-0.04,0-0.08,0-0.12,0.01c0-0.04,0-0.09-0.01-0.13L33.29,15.08z"/>
			<path class="st3" d="M30.99,14.59c0,0.05,0,0.11-0.01,0.16l-0.25,0c-0.28,0-0.57,0-0.85-0.01c-0.28,0-0.57,0-0.85,0.01
				c-0.09,0-0.17,0-0.26,0v-0.16c0-0.61,0.5-1.11,1.11-1.11S30.99,13.98,30.99,14.59"/>
			<path class="st3" d="M30.74,15.17l0.09,0c-0.19,0.32-0.54,0.53-0.94,0.53h-1.11v-0.53c0.09,0,0.17,0,0.26,0
				c0.28,0,0.57,0,0.85,0.01C30.17,15.17,30.45,15.17,30.74,15.17"/>
			<path class="st1" d="M26.49,15.08l0.13-0.13c0,0.04,0,0.09-0.01,0.13L26.49,15.08z"/>
			<path class="st3" d="M26.45,12.87c0.11,0.05,0.16,0.17,0.12,0.28c-0.03,0.08-0.11,0.13-0.2,0.13c-0.03,0-0.06-0.01-0.08-0.02
				l-2.87-1.2c-0.11-0.05-0.16-0.17-0.12-0.28c0.05-0.11,0.17-0.16,0.28-0.12L26.45,12.87z"/>
			<path class="st1" d="M26.49,16.5c0,0.02,0,0.04-0.01,0.06c0-0.02,0-0.04-0.01-0.06H26.49z"/>
			<path class="st3" d="M26.13,13.89c0.12,0.01,0.2,0.12,0.19,0.24c-0.01,0.11-0.11,0.19-0.21,0.19c-0.01,0-0.02,0-0.03,0
				l-1.74-0.22c-0.12-0.01-0.2-0.12-0.19-0.24c0.01-0.12,0.12-0.2,0.24-0.19L26.13,13.89z"/>
			<path class="st3" d="M25.71,15.13c0.01,0.12-0.07,0.23-0.19,0.24l-0.44,0.05c-0.01,0-0.02,0-0.03,0c-0.11,0-0.2-0.08-0.21-0.19
				c-0.01-0.12,0.07-0.23,0.19-0.24l0.44-0.05C25.59,14.93,25.7,15.01,25.71,15.13"/>
			<path class="st3" d="M25.5,16.47c0.05,0.11-0.01,0.24-0.12,0.28l-5.71,2.38c-0.03,0.01-0.06,0.02-0.08,0.02
				c-0.08,0-0.17-0.05-0.2-0.13c-0.05-0.11,0.01-0.24,0.12-0.28l5.7-2.38C25.33,16.31,25.45,16.36,25.5,16.47"/>
			<path class="st3" d="M24.29,15.31c0.01,0.12-0.07,0.23-0.19,0.24l-3.05,0.38c-0.01,0-0.02,0-0.03,0c-0.11,0-0.2-0.08-0.21-0.19
				c-0.01-0.12,0.07-0.23,0.19-0.24l3.05-0.38C24.16,15.1,24.27,15.19,24.29,15.31"/>
			<path class="st3" d="M22.35,11.16c0.11,0.05,0.16,0.17,0.12,0.28c-0.03,0.08-0.11,0.13-0.2,0.13c-0.03,0-0.06,0-0.08-0.02
				l-6.4-2.67c-0.11-0.05-0.16-0.17-0.12-0.28c0.05-0.11,0.17-0.16,0.28-0.12L22.35,11.16z"/>
			<path class="st3" d="M21.23,13.29c0.12,0.01,0.2,0.12,0.19,0.24c-0.01,0.11-0.11,0.19-0.21,0.19c-0.01,0-0.02,0-0.03,0
				l-1.56-0.19c-0.12-0.01-0.2-0.12-0.19-0.24c0.01-0.12,0.12-0.2,0.24-0.19L21.23,13.29z"/>
			<path class="st3" d="M19.25,15.93c0.01,0.12-0.07,0.23-0.19,0.24l-5.17,0.64c-0.01,0-0.02,0-0.03,0c-0.11,0-0.2-0.08-0.21-0.19
				c-0.01-0.12,0.07-0.23,0.19-0.24l5.17-0.64C19.13,15.73,19.24,15.81,19.25,15.93"/>
			<path class="st3" d="M18,19.6c0.05,0.11-0.01,0.24-0.12,0.28l-2.79,1.16c-0.03,0.01-0.06,0.02-0.08,0.02
				c-0.08,0-0.17-0.05-0.2-0.13c-0.05-0.11,0.01-0.24,0.12-0.28l2.79-1.16C17.83,19.44,17.96,19.49,18,19.6"/>
			<path class="st3" d="M17.33,12.8c0.12,0.01,0.2,0.12,0.19,0.24c-0.01,0.11-0.11,0.19-0.21,0.19c-0.01,0-0.02,0-0.03,0l-3.04-0.38
				c-0.12-0.01-0.2-0.12-0.19-0.24c0.01-0.12,0.12-0.2,0.24-0.19L17.33,12.8z"/>
			<path class="st3" d="M14.89,8.05C15,8.09,15.05,8.22,15,8.33c-0.03,0.08-0.11,0.13-0.2,0.13c-0.03,0-0.06-0.01-0.08-0.02
				l-2.35-0.98c-0.11-0.05-0.16-0.17-0.12-0.28c0.05-0.11,0.17-0.16,0.28-0.12L14.89,8.05z"/>
			<path class="st3" d="M13.22,12.3c0.12,0.01,0.2,0.12,0.19,0.24c-0.01,0.11-0.11,0.19-0.21,0.19c-0.01,0-0.02,0-0.03,0l-0.73-0.09
				c-0.12-0.01-0.2-0.12-0.19-0.24c0.01-0.12,0.12-0.2,0.24-0.19L13.22,12.3z"/>
			<path class="st3" d="M13.03,16.7c0.01,0.12-0.07,0.23-0.19,0.24L8.33,17.5c-0.01,0-0.02,0-0.03,0c-0.11,0-0.2-0.08-0.21-0.19
				c-0.01-0.12,0.07-0.23,0.19-0.24l4.52-0.56C12.91,16.5,13.02,16.58,13.03,16.7"/>
			<path class="st3" d="M9.81,23.01c0.05,0.11-0.01,0.24-0.12,0.28l-1.29,0.54c-0.03,0.01-0.06,0.02-0.08,0.02
				c-0.08,0-0.17-0.05-0.2-0.13c-0.05-0.11,0.01-0.24,0.12-0.28l1.29-0.54C9.64,22.85,9.77,22.9,9.81,23.01"/>
			<path class="st3" d="M9.61,5.85c0.11,0.05,0.16,0.17,0.12,0.28c-0.03,0.08-0.12,0.13-0.2,0.13c-0.03,0-0.06,0-0.08-0.02
				l-1.19-0.5C8.14,5.7,8.09,5.58,8.14,5.47C8.18,5.36,8.31,5.3,8.42,5.35L9.61,5.85z"/>
			<path class="st3" d="M8.83,11.75c0.12,0.01,0.2,0.12,0.19,0.24c-0.01,0.11-0.11,0.19-0.21,0.19c-0.01,0-0.02,0-0.03,0l-0.49-0.06
				C8.17,12.11,8.08,12,8.1,11.88c0.01-0.12,0.12-0.2,0.24-0.19L8.83,11.75z"/>
			<path class="st2" d="M32.42,12.33h-5.08c0.03-0.24,0.17-0.47,0.46-0.65c1.55-0.99,2.08-2.36,2.08-2.36s0.53,1.37,2.08,2.36
				C32.25,11.86,32.4,12.09,32.42,12.33"/>
			<path class="st2" d="M32.85,18.54c0,0,0.06,0,0.56,0c0.5,0,0.46-0.54,0.46-0.54s0.02-0.77,0-1.1c-0.02-0.32-0.32-0.39-0.32-0.39
				l-0.74,0l-0.2-1.41l0.56-0.03l0.11,1.42l0.14-1.67l-0.86-0.04l-0.3-2.07h-4.74l-0.29,2.07l-0.87,0.04l0.14,1.63l0.11-1.38
				l0.57,0.03l-0.19,1.38c0,0-0.12,0-0.56,0c-0.44,0-0.51,0.41-0.51,0.41s0,0.56,0,1.07c0,0.52,0.36,0.56,0.36,0.56h0.47L26.2,24.1
				c0.02,3.52,3.46,4.53,3.46,4.53c4.43,1.8,4.75,3.76,4.75,3.76L32.85,18.54z"/>
			<path class="st2" d="M25.94,26.4c0,0-0.08,3.21,3.41,4.52c3.49,1.31,5.04,2.99,5.19,4.43c0.15,1.44,1.03,8.82,1.03,8.82
				s-0.18-1.85-2.4-3.6c-2.22-1.75-8.14-2.03-7.73-7.41C25.86,27.78,25.94,26.4,25.94,26.4"/>
			<path class="st3" d="M28.78,14.75h2.2c0,0,0.11-0.9-0.73-1.2C29.41,13.25,28.71,13.95,28.78,14.75"/>
			<path class="st3" d="M28.78,15.17l2.05,0c0,0-0.32,0.52-0.87,0.53c-0.55,0-1.18,0-1.18,0V15.17z"/>
		</g>
	</g>
</g>
</svg>
