<?xml version="1.0" encoding="utf-8"?>
<!-- Generator: Adobe Illustrator 25.0.0, SVG Export Plug-In . SVG Version: 6.00 Build 0)  -->
<svg version="1.1" id="圖層_1" xmlns="http://www.w3.org/2000/svg" xmlns:xlink="http://www.w3.org/1999/xlink" x="0px" y="0px"
	 viewBox="0 0 120 60" style="enable-background:new 0 0 120 60;" xml:space="preserve">
<style type="text/css">
	.st0{fill:#231815;}
	.st1{fill:#040000;}
	.st2{fill:none;}
</style>
<path class="st0" d="M20.05,13.41c0.04,0.57,0.07,1.04,0.08,1.4c0.01,0.36,0.01,0.99,0.01,1.88c0,0.89-0.01,1.56-0.02,2.02
	c-0.04,1.21-0.26,2.09-0.65,2.63c0.62,0.55,1,1.51,1.14,2.87c0.11,1,0.17,2.1,0.17,3.3s0,1.99-0.01,2.38s-0.04,0.87-0.09,1.45
	c-0.05,0.58-0.13,1.02-0.23,1.32c-0.1,0.3-0.25,0.63-0.44,0.99c-0.19,0.36-0.43,0.63-0.7,0.79c-0.7,0.43-1.54,0.65-2.52,0.65
	l-2.67-0.24v-24.7l2.24-0.34c1.59,0,2.62,0.46,3.08,1.37c0.17,0.37,0.3,0.68,0.4,0.96C19.94,12.42,20.01,12.84,20.05,13.41
	 M16.16,20.53c0.75,0,1.23-0.04,1.45-0.14c0.22-0.09,0.39-0.17,0.51-0.22c0.11-0.06,0.22-0.19,0.3-0.39
	c0.09-0.21,0.15-0.37,0.18-0.5c0.04-0.12,0.07-0.37,0.1-0.74c0.03-0.36,0.04-0.67,0.04-0.92v-1.13c0-2.05-0.11-3.27-0.32-3.66
	c-0.3-0.55-0.65-0.86-1.03-0.94c-0.39-0.08-0.8-0.12-1.23-0.12h-0.75l0.09,0.85v7.05l-0.09,0.86H16.16z M16.8,33.15
	c0.87,0,1.55-0.25,2.02-0.75c0.32-0.32,0.49-1.09,0.54-2.33c0.01-0.39,0.02-0.93,0.02-1.64v-1.37c0-1.05-0.01-1.66-0.04-1.85
	c-0.03-0.18-0.06-0.44-0.1-0.77c-0.04-0.33-0.08-0.55-0.14-0.65c-0.06-0.1-0.13-0.26-0.21-0.46c-0.09-0.2-0.19-0.34-0.3-0.39
	c-0.11-0.06-0.24-0.14-0.39-0.26c-0.23-0.14-0.62-0.2-1.18-0.2h-1.61l0.09,0.85v8.96l-0.09,0.85H16.8z"/>
<path class="st0" d="M30.44,34.86c-0.73,0-1.18-0.07-1.35-0.21c-0.17-0.14-0.37-0.59-0.58-1.37l-2.9-10.12h-1.14l0.09,0.85v9.27
	h0.02c0,0.77-0.05,1.23-0.16,1.37c-0.11,0.14-0.47,0.21-1.09,0.21h-0.13v-24.7l2.45-0.34c1.49,0,2.45,0.46,2.88,1.37
	c0.17,0.37,0.3,0.68,0.39,0.96c0.09,0.27,0.15,0.7,0.19,1.27c0.06,0.75,0.09,1.67,0.09,2.75c0,1.08-0.01,1.91-0.03,2.46
	c-0.02,0.56-0.08,1.14-0.16,1.74c-0.09,0.61-0.21,1.08-0.37,1.42c-0.36,0.8-0.92,1.24-1.68,1.33l3.57,11.73H30.44z M25.64,21.21
	c0.73,0,1.3-0.22,1.7-0.65c0.24-0.3,0.39-1.05,0.43-2.26c0.01-0.36,0.02-0.97,0.02-1.81c0-0.84-0.01-1.45-0.02-1.81
	c-0.01-0.36-0.05-0.79-0.12-1.26c-0.06-0.48-0.17-0.81-0.31-0.99c-0.4-0.43-0.97-0.65-1.7-0.65h-1.1v8.59l-0.09,0.85H25.64z"/>
<path class="st0" d="M34.29,34.86h-0.11c-0.62,0-0.98-0.07-1.09-0.21c-0.11-0.14-0.16-0.59-0.16-1.37V10.23h0.11
	c0.62,0,0.98,0.07,1.09,0.2c0.11,0.14,0.16,0.59,0.16,1.37V34.86z"/>
<path class="st0" d="M42.85,24.36c0-0.98,0.04-1.56,0.13-1.73c0.09-0.17,0.37-0.26,0.86-0.26h0.37v12.14
	c-0.22,0.05-0.53,0.13-0.95,0.24c-0.83,0.23-1.48,0.34-1.96,0.34c-0.47,0-0.87-0.07-1.2-0.22c-0.33-0.15-0.61-0.33-0.85-0.55
	c-0.24-0.22-0.45-0.55-0.63-0.99c-0.19-0.44-0.34-0.85-0.46-1.21c-0.12-0.36-0.23-0.89-0.31-1.59c-0.09-0.69-0.15-1.27-0.19-1.73
	c-0.04-0.46-0.08-1.13-0.1-2.04c-0.02-0.9-0.03-1.6-0.03-2.1v-4.41c0-1.73,0.02-2.9,0.08-3.49c0.05-0.59,0.1-1.21,0.16-1.86
	c0.06-0.65,0.13-1.15,0.23-1.49c0.09-0.34,0.2-0.74,0.33-1.2c0.13-0.46,0.28-0.8,0.46-1.04c0.18-0.24,0.38-0.48,0.61-0.74
	c0.43-0.41,1.03-0.62,1.81-0.62l2.58,0.68c0,0.66-0.08,1.07-0.24,1.23c-0.16,0.16-0.32,0.24-0.48,0.24h-0.36l-1.5-0.2
	c-0.6,0-1.05,0.29-1.33,0.85c-0.17,0.3-0.32,0.59-0.43,0.89c-0.11,0.3-0.2,0.74-0.27,1.33c-0.06,0.59-0.12,1.1-0.16,1.52
	c-0.04,0.42-0.08,1.04-0.1,1.85c-0.02,0.81-0.03,1.45-0.03,1.93v4.38c0,1.73,0.03,2.91,0.1,3.54c0.06,0.63,0.13,1.24,0.19,1.85
	c0.06,0.6,0.15,1.07,0.27,1.39c0.11,0.32,0.26,0.64,0.43,0.96c0.3,0.59,0.75,0.89,1.33,0.89c0.44,0,1.02-0.11,1.74-0.34l-0.09-0.86
	V24.36z"/>
<path class="st0" d="M53.71,34.86h-0.09c-0.62,0-0.98-0.07-1.09-0.21c-0.11-0.14-0.16-0.59-0.16-1.37v-9.92l0.09-0.85h-4.11
	l0.09,0.85v9.92c0,0.77-0.05,1.23-0.16,1.37c-0.11,0.14-0.47,0.21-1.09,0.21H47.1V10.23h0.09c0.62,0,0.98,0.07,1.09,0.2
	c0.11,0.14,0.16,0.59,0.16,1.37v7.9l-0.09,0.85h4.11l-0.09-0.85v-9.47h0.09c0.62,0,0.98,0.07,1.09,0.2
	c0.11,0.14,0.16,0.59,0.16,1.37V34.86z"/>
<path class="st0" d="M58.35,34.86h-0.17V12.9l0.09-0.85h-2.41v-1.81h6.09v1.81h-2.43l0.09,0.85v20.39c0,0.77-0.05,1.23-0.16,1.37
	C59.33,34.79,58.97,34.86,58.35,34.86"/>
<path class="st0" d="M70.69,34.86h-0.09c-0.62,0-0.98-0.07-1.09-0.21c-0.11-0.14-0.16-0.59-0.16-1.37v-9.92l0.09-0.85h-4.11
	l0.09,0.85v9.92c0,0.77-0.05,1.23-0.16,1.37c-0.11,0.14-0.47,0.21-1.09,0.21h-0.09V10.23h0.09c0.62,0,0.98,0.07,1.09,0.2
	c0.11,0.14,0.16,0.59,0.16,1.37v7.9l-0.09,0.85h4.11l-0.09-0.85v-9.47h0.09c0.62,0,0.98,0.07,1.09,0.2
	c0.11,0.14,0.16,0.59,0.16,1.37V34.86z"/>
<path class="st0" d="M80.49,32.18c-0.51,1.95-1.51,2.93-3,2.93c-1.49,0-2.49-0.98-3.01-2.93c-0.52-1.95-0.77-5.22-0.77-9.82
	c0-4.59,0.26-7.83,0.77-9.71c0.52-1.88,1.52-2.82,3.01-2.82c1.49,0,2.49,0.94,3,2.82c0.51,1.88,0.76,5.12,0.76,9.71
	C81.25,26.95,81,30.23,80.49,32.18 M77.49,33.15c0.9,0,1.52-0.87,1.84-2.62c0.32-1.74,0.48-4.46,0.48-8.16
	c0-3.56-0.15-6.17-0.45-7.83c-0.34-1.85-0.97-2.77-1.87-2.77c-0.9,0-1.52,0.85-1.85,2.55c-0.33,1.7-0.5,4.07-0.5,7.12
	c0,3.04,0.06,5.31,0.17,6.79C75.57,31.51,76.3,33.15,77.49,33.15"/>
<path class="st0" d="M89.81,24.7V10.23h0.15c0.62,0,0.98,0.07,1.09,0.2c0.11,0.14,0.16,0.59,0.16,1.37v12.9
	c0,1.76-0.01,3.04-0.03,3.85c-0.02,0.81-0.09,1.74-0.2,2.79c-0.11,1.05-0.29,1.78-0.54,2.19c-0.62,1.05-1.53,1.57-2.73,1.57
	c-1.2,0-2.01-0.38-2.41-1.13c-0.17-0.32-0.31-0.6-0.43-0.84c-0.11-0.24-0.21-0.63-0.28-1.18c-0.07-0.55-0.13-1-0.17-1.35
	c-0.04-0.35-0.08-0.92-0.1-1.69c-0.02-0.77-0.03-1.39-0.03-1.85V10.23h0.15c0.62,0,0.98,0.07,1.09,0.2
	c0.11,0.14,0.16,0.59,0.16,1.37v12.9v1.32c0,0.72,0,1.33,0.01,1.85c0.01,0.51,0.03,1.14,0.06,1.88c0.04,0.74,0.09,1.26,0.17,1.57
	c0.08,0.31,0.19,0.63,0.33,0.98c0.26,0.57,0.74,0.85,1.44,0.85c0.97,0,1.57-0.56,1.78-1.69C89.7,30.33,89.81,28.08,89.81,24.7"/>
<path class="st0" d="M100.3,26.89v0.75c0,2.28-0.13,3.89-0.39,4.82c-0.52,1.73-1.61,2.61-3.29,2.63l-3.12-0.68V32.5l3.14,0.34
	c0.97,0,1.6-0.34,1.87-1.03c0.1-0.27,0.18-0.5,0.24-0.67c0.06-0.17,0.1-0.46,0.12-0.87c0.02-0.41,0.04-0.71,0.04-0.91
	c0.01-0.19,0.01-0.54,0-1.04c-0.01-0.5-0.01-0.84-0.01-1.03c0-1.12-0.63-2.54-1.89-4.28c-0.52-0.71-1.04-1.44-1.57-2.19
	c-0.53-0.75-0.98-1.6-1.34-2.53c-0.37-0.93-0.55-1.81-0.55-2.62c0-0.81,0-1.36,0.01-1.64c0.01-0.28,0.03-0.68,0.06-1.2
	c0.04-0.51,0.1-0.88,0.18-1.09c0.09-0.22,0.21-0.48,0.38-0.8c0.16-0.32,0.38-0.54,0.63-0.65c0.7-0.32,1.44-0.48,2.21-0.48l2.28,0.68
	c0,0.87-0.14,1.33-0.43,1.4c-0.11,0.02-0.29,0.02-0.52,0l-1.2-0.2c-1.03,0-1.67,0.35-1.91,1.06c-0.14,0.36-0.23,0.72-0.27,1.06
	c-0.04,0.34-0.05,0.83-0.05,1.45s0.13,1.26,0.4,1.91c0.27,0.65,0.6,1.24,1,1.78c0.4,0.54,0.83,1.12,1.29,1.76
	c0.46,0.64,0.89,1.25,1.29,1.83c0.4,0.58,0.73,1.25,1,2.02C100.17,25.35,100.3,26.12,100.3,26.89"/>
<polygon class="st0" points="108.6,34.86 102.73,34.86 102.73,10.23 108.39,10.23 108.39,12.05 104.07,12.05 104.15,12.9 
	104.15,19.71 104.07,20.56 108.09,20.56 108.09,22.51 104.07,22.51 104.15,23.37 104.15,32.06 104.07,32.91 108.6,32.91 "/>
<path class="st1" d="M19.13,49.16v-3.49v-0.13c0-1.56-0.03-2.51-0.09-2.87c-0.06-0.36-0.25-0.54-0.57-0.54l-0.92,0.49l0.04,0.4v6.87
	c-0.29,0-0.45-0.03-0.5-0.1c-0.05-0.06-0.07-0.27-0.07-0.63L17,45.67v-0.43V44.6c0-0.18,0-0.35-0.01-0.51
	c0-0.16-0.01-0.38-0.02-0.66c-0.01-0.27-0.03-0.47-0.05-0.58c-0.03-0.12-0.06-0.24-0.11-0.38c-0.08-0.22-0.23-0.33-0.46-0.33
	l-0.93,0.55l0.04,0.39v6.8c-0.29,0-0.46-0.03-0.51-0.1c-0.05-0.06-0.07-0.27-0.07-0.63v-7.75c0.29,0,0.46,0.02,0.51,0.06
	c0.05,0.04,0.07,0.18,0.07,0.42l0.89-0.58c0.48,0,0.83,0.22,1.05,0.66l1.06-0.66c0.6,0,0.96,0.22,1.08,0.67
	c0.12,0.45,0.17,1.69,0.17,3.72v4.2c-0.3,0-0.47-0.03-0.52-0.1C19.15,49.73,19.13,49.52,19.13,49.16"/>
<path class="st1" d="M25.78,45.61v-4.2c0.29,0,0.46,0.03,0.51,0.09c0.05,0.06,0.07,0.27,0.07,0.64v3.44c0,1.22,0.02,2.06,0.06,2.5
	c0.04,0.45,0.11,0.74,0.2,0.88c0.09,0.14,0.21,0.2,0.36,0.2l0.98-0.73l-0.05-0.39v-6.63c0.29,0,0.46,0.03,0.51,0.09
	c0.05,0.06,0.07,0.27,0.07,0.64v7.75c-0.29,0-0.46-0.03-0.51-0.08c-0.05-0.05-0.07-0.24-0.07-0.55L27.03,50
	c-0.42,0-0.74-0.21-0.98-0.62c-0.15-0.27-0.24-0.97-0.26-2.08C25.78,46.95,25.78,46.39,25.78,45.61"/>
<path class="st1" d="M36.51,49.48c-0.08,0.16-0.19,0.28-0.32,0.35c-0.13,0.08-0.29,0.12-0.49,0.12c-0.19,0-0.59-0.08-1.18-0.24
	v-0.84c0.03,0,0.19,0.03,0.5,0.08c0.31,0.05,0.54,0.08,0.69,0.08c0.37,0,0.56-0.55,0.56-1.64v-0.22c-0.01-0.34-0.21-0.75-0.62-1.24
	s-0.7-0.92-0.89-1.29c-0.19-0.37-0.29-0.74-0.29-1.12c0-0.38,0-0.64,0.01-0.79c0.01-0.15,0.03-0.33,0.07-0.55
	c0.04-0.22,0.1-0.38,0.18-0.47c0.2-0.26,0.52-0.4,0.93-0.4l0.94,0.22c0,0.46-0.12,0.69-0.36,0.69c-0.05,0-0.09-0.01-0.14-0.02
	l-0.41-0.09c-0.32,0-0.52,0.12-0.6,0.35c-0.06,0.2-0.09,0.49-0.09,0.88c0,0.38,0.26,0.9,0.77,1.55c0.24,0.28,0.42,0.51,0.54,0.68
	c0.12,0.17,0.24,0.39,0.36,0.66c0.12,0.27,0.17,0.54,0.17,0.8c0,0.26,0,0.48-0.01,0.66c-0.01,0.18-0.02,0.4-0.04,0.65
	c-0.02,0.25-0.06,0.46-0.11,0.63C36.65,49.16,36.59,49.32,36.51,49.48"/>
<path class="st1" d="M43.38,39.74c-0.09,0.14-0.2,0.21-0.32,0.21c-0.13,0-0.23-0.07-0.32-0.21c-0.09-0.14-0.13-0.32-0.13-0.52
	c0-0.21,0.04-0.37,0.13-0.51c0.09-0.13,0.2-0.2,0.32-0.2c0.13,0,0.23,0.07,0.32,0.21c0.09,0.14,0.13,0.31,0.13,0.51
	C43.51,39.43,43.47,39.6,43.38,39.74 M42.77,49.22v-7.81c0.29,0,0.46,0.03,0.51,0.09c0.05,0.06,0.07,0.27,0.07,0.64v7.81
	c-0.29,0-0.46-0.03-0.51-0.1C42.79,49.79,42.77,49.58,42.77,49.22"/>
<path class="st1" d="M49.52,45.66v-1.01c0-0.77,0.01-1.25,0.03-1.45c0.02-0.2,0.05-0.42,0.08-0.65c0.03-0.23,0.07-0.39,0.11-0.48
	c0.04-0.09,0.1-0.2,0.16-0.32c0.06-0.13,0.14-0.21,0.23-0.25c0.22-0.13,0.45-0.19,0.68-0.19l0.82,0.21c0,0.46-0.12,0.69-0.36,0.69
	c-0.05,0-0.09,0-0.14-0.02l-0.33-0.05c-0.34,0-0.54,0.22-0.62,0.67c-0.07,0.45-0.11,1.22-0.11,2.31c0,1.1,0,1.81,0.01,2.13
	c0.01,0.33,0.03,0.67,0.08,1.03c0.05,0.36,0.12,0.6,0.22,0.71c0.1,0.11,0.24,0.17,0.42,0.17L51.68,49v0.73L50.82,50
	c-0.36,0-0.6-0.07-0.71-0.2c-0.12-0.14-0.21-0.25-0.27-0.34c-0.06-0.09-0.11-0.25-0.15-0.48c-0.04-0.23-0.07-0.43-0.09-0.58
	c-0.02-0.16-0.04-0.42-0.05-0.77C49.53,47,49.52,46.35,49.52,45.66"/>
<path class="st1" d="M66.43,49.48c-0.08,0.16-0.19,0.28-0.32,0.35c-0.13,0.08-0.29,0.12-0.49,0.12c-0.19,0-0.59-0.08-1.18-0.24
	v-0.84c0.03,0,0.19,0.03,0.5,0.08c0.31,0.05,0.54,0.08,0.69,0.08c0.37,0,0.56-0.55,0.56-1.64v-0.22c-0.01-0.34-0.21-0.75-0.62-1.24
	s-0.7-0.92-0.89-1.29c-0.19-0.37-0.29-0.74-0.29-1.12c0-0.38,0-0.64,0.01-0.79c0.01-0.15,0.03-0.33,0.07-0.55
	c0.04-0.22,0.1-0.38,0.18-0.47c0.2-0.26,0.52-0.4,0.93-0.4l0.94,0.22c0,0.46-0.12,0.69-0.36,0.69c-0.05,0-0.09-0.01-0.14-0.02
	l-0.41-0.09c-0.32,0-0.52,0.12-0.6,0.35c-0.06,0.2-0.09,0.49-0.09,0.88c0,0.38,0.26,0.9,0.77,1.55c0.24,0.28,0.42,0.51,0.54,0.68
	c0.12,0.17,0.24,0.39,0.36,0.66c0.12,0.27,0.17,0.54,0.17,0.8c0,0.26,0,0.48-0.01,0.66c-0.01,0.18-0.02,0.4-0.04,0.65
	c-0.02,0.25-0.06,0.46-0.11,0.63C66.58,49.16,66.51,49.32,66.43,49.48"/>
<path class="st1" d="M72.78,46.29v-3.63l0.04-0.4H72.4v-0.85h0.43l-0.04-0.55v-0.69c0.29,0,0.46,0.03,0.51,0.09
	c0.05,0.06,0.07,0.27,0.07,0.63l-0.04,0.52h0.91c0,0.39-0.02,0.63-0.06,0.72c-0.04,0.09-0.18,0.13-0.41,0.13h-0.44l0.04,0.4v3.63
	c0,1.2,0.02,1.98,0.06,2.34c0.04,0.36,0.15,0.54,0.34,0.54h0.67v0.73l-0.68,0.08c-0.46,0-0.73-0.22-0.83-0.67
	S72.78,47.85,72.78,46.29"/>
<path class="st1" d="M80,45.61v-4.2c0.29,0,0.46,0.03,0.51,0.09c0.05,0.06,0.07,0.27,0.07,0.64v3.44c0,1.22,0.02,2.06,0.06,2.5
	c0.04,0.45,0.11,0.74,0.2,0.88c0.09,0.14,0.21,0.2,0.36,0.2l0.98-0.73l-0.05-0.39v-6.63c0.29,0,0.46,0.03,0.51,0.09
	c0.05,0.06,0.07,0.27,0.07,0.64v7.75c-0.29,0-0.46-0.03-0.51-0.08c-0.05-0.05-0.07-0.24-0.07-0.55L81.25,50
	c-0.42,0-0.74-0.21-0.98-0.62c-0.15-0.27-0.24-0.97-0.26-2.08C80,46.95,80,46.39,80,45.61"/>
<path class="st1" d="M88.74,47.36c-0.01-0.35-0.01-0.82-0.01-1.42c0-0.6,0-1.02,0.01-1.25c0-0.23,0.01-0.51,0.01-0.83
	c0.01-0.32,0.02-0.56,0.03-0.73c0.02-0.16,0.04-0.35,0.07-0.57c0.03-0.22,0.07-0.38,0.11-0.48c0.05-0.11,0.1-0.22,0.17-0.35
	c0.07-0.13,0.14-0.21,0.23-0.25c0.23-0.13,0.47-0.19,0.71-0.19l0.73,0.44v-3.41c0.29,0,0.46,0.03,0.51,0.1
	c0.05,0.06,0.07,0.27,0.07,0.63v10.83c-0.29,0-0.46-0.03-0.51-0.1c-0.05-0.07-0.07-0.31-0.07-0.73L90.03,50
	c-0.44,0-0.78-0.19-1.02-0.58C88.85,49.15,88.76,48.47,88.74,47.36 M89.35,43.57c-0.02,0.38-0.03,0.68-0.03,0.91
	c0,0.23-0.01,0.84-0.01,1.85c0,1.01,0.03,1.69,0.09,2.06c0.14,0.48,0.35,0.74,0.64,0.77l0.81-0.71l-0.04-0.39v-5.11l0.04-0.4
	l-0.81-0.41c-0.24,0-0.41,0.13-0.51,0.4C89.43,42.85,89.37,43.19,89.35,43.57"/>
<path class="st1" d="M98.29,39.74c-0.09,0.14-0.2,0.21-0.32,0.21c-0.13,0-0.23-0.07-0.32-0.21c-0.09-0.14-0.13-0.32-0.13-0.52
	c0-0.21,0.04-0.37,0.13-0.51c0.09-0.13,0.2-0.2,0.32-0.2c0.13,0,0.23,0.07,0.32,0.21c0.09,0.14,0.13,0.31,0.13,0.51
	C98.42,39.43,98.37,39.6,98.29,39.74 M97.68,49.22v-7.81c0.29,0,0.46,0.03,0.51,0.09c0.05,0.06,0.07,0.27,0.07,0.64v7.81
	c-0.29,0-0.46-0.03-0.51-0.1C97.7,49.79,97.68,49.58,97.68,49.22"/>
<path class="st1" d="M106.5,49.82c-0.09,0.05-0.14,0.07-0.14,0.07s-0.06,0.02-0.17,0.05c-0.12,0.04-0.25,0.06-0.42,0.06
	c-0.16,0-0.31-0.02-0.44-0.05c-0.13-0.03-0.24-0.1-0.34-0.21c-0.1-0.11-0.18-0.2-0.24-0.29c-0.06-0.09-0.12-0.25-0.16-0.48
	c-0.04-0.23-0.08-0.43-0.1-0.58s-0.04-0.42-0.05-0.78c-0.01-0.36-0.02-0.66-0.02-0.89c0-0.23-0.01-0.6-0.01-1.1
	c0-0.51,0-0.87,0.01-1.1c0-0.23,0.01-0.52,0.02-0.88c0.01-0.36,0.03-0.62,0.05-0.77c0.02-0.15,0.06-0.34,0.1-0.57
	c0.04-0.23,0.1-0.38,0.16-0.47c0.06-0.08,0.14-0.17,0.24-0.27c0.15-0.17,0.36-0.25,0.62-0.25c0.26,0,0.45,0.02,0.57,0.06
	c0.12,0.04,0.22,0.08,0.31,0.12c0.09,0.04,0.17,0.13,0.24,0.26c0.07,0.13,0.12,0.24,0.17,0.33c0.05,0.09,0.08,0.25,0.11,0.47
	c0.03,0.23,0.05,0.41,0.06,0.55c0.02,0.14,0.03,0.38,0.04,0.72c0.01,0.34,0.01,0.61,0.01,0.82v0.98v0.06v0.96
	c0,0.72-0.01,1.19-0.04,1.41c-0.03,0.23-0.05,0.46-0.08,0.69c-0.03,0.23-0.06,0.39-0.11,0.48c-0.05,0.09-0.1,0.2-0.17,0.33
	C106.67,49.68,106.59,49.77,106.5,49.82 M106.55,45.97v-0.54c0-1.38-0.04-2.25-0.11-2.6c-0.11-0.45-0.32-0.68-0.66-0.69
	c-0.27,0-0.45,0.11-0.55,0.33c-0.05,0.15-0.1,0.28-0.13,0.41c-0.03,0.13-0.06,0.35-0.07,0.66c-0.02,0.46-0.03,0.91-0.03,1.34v1.3
	c0,0.44,0,0.81,0.01,1.13c0.01,0.32,0.03,0.65,0.08,1c0.05,0.35,0.13,0.58,0.23,0.69c0.11,0.11,0.24,0.16,0.4,0.16
	c0.16,0,0.28-0.02,0.37-0.07c0.09-0.05,0.16-0.14,0.21-0.27c0.06-0.13,0.1-0.26,0.13-0.4c0.03-0.13,0.05-0.34,0.06-0.62
	C106.53,47.39,106.55,46.78,106.55,45.97"/>
<line class="st2" x1="140.96" y1="52.82" x2="-19.04" y2="52.82"/>
<line class="st2" x1="140.96" y1="52.82" x2="-19.04" y2="52.82"/>
</svg>
