<?xml version="1.0" encoding="utf-8"?>
<!-- Generator: Adobe Illustrator 25.0.0, SVG Export Plug-In . SVG Version: 6.00 Build 0)  -->
<svg version="1.1" id="圖層_1" xmlns="http://www.w3.org/2000/svg" xmlns:xlink="http://www.w3.org/1999/xlink" x="0px" y="0px"
	 viewBox="0 0 283.46 283.46" style="enable-background:new 0 0 283.46 283.46;" xml:space="preserve">
<style type="text/css">
	.st0{fill:#231815;}
	.st1{fill:#040000;}
	.st2{fill:none;stroke:#231815;stroke-width:2.3083;stroke-miterlimit:10;}
	.st3{fill:none;stroke:#231815;stroke-width:2.3083;stroke-linecap:round;stroke-miterlimit:10;}
	.st4{fill:#F6CF5F;}
	.st5{fill:#FFFFFF;}
</style>
<g>
	<g>
		<g>
			<path class="st0" d="M90.02,211.08c0.05,0.45,0.09,0.82,0.1,1.11c0.01,0.29,0.01,0.79,0.01,1.5s-0.01,1.24-0.03,1.6
				c-0.05,0.96-0.33,1.66-0.82,2.09c0.78,0.43,1.26,1.2,1.44,2.28c0.14,0.8,0.22,1.67,0.22,2.62c0,0.95,0,1.58-0.01,1.89
				c-0.01,0.31-0.05,0.69-0.11,1.16c-0.06,0.46-0.16,0.81-0.29,1.05c-0.13,0.24-0.31,0.5-0.56,0.79c-0.24,0.29-0.54,0.5-0.88,0.63
				c-0.89,0.34-1.95,0.52-3.18,0.52l-3.37-0.19V208.5l2.83-0.27c2.01,0,3.31,0.36,3.89,1.09c0.22,0.29,0.38,0.54,0.5,0.76
				C89.88,210.29,89.96,210.63,90.02,211.08z M85.1,216.74c0.94,0,1.55-0.04,1.83-0.11c0.28-0.07,0.49-0.13,0.64-0.18
				c0.14-0.04,0.27-0.15,0.38-0.31c0.11-0.16,0.19-0.29,0.23-0.39c0.05-0.1,0.09-0.29,0.12-0.58c0.04-0.29,0.05-0.53,0.05-0.73v-0.9
				c0-1.63-0.14-2.6-0.41-2.91c-0.38-0.43-0.82-0.68-1.3-0.75c-0.49-0.06-1.01-0.1-1.55-0.1h-0.95l0.11,0.68v5.6l-0.11,0.68H85.1z
				 M85.91,226.77c1.11,0,1.96-0.2,2.56-0.6c0.4-0.25,0.63-0.87,0.68-1.85c0.02-0.31,0.03-0.74,0.03-1.3v-1.09
				c0-0.83-0.02-1.32-0.05-1.47c-0.04-0.14-0.08-0.35-0.12-0.61c-0.05-0.26-0.1-0.43-0.18-0.52c-0.07-0.08-0.16-0.2-0.27-0.37
				s-0.24-0.27-0.38-0.31c-0.15-0.05-0.31-0.11-0.49-0.2c-0.29-0.11-0.79-0.16-1.5-0.16h-2.04l0.11,0.68v7.12l-0.11,0.68H85.91z"/>
		</g>
		<g>
			<path class="st0" d="M103.15,228.13c-0.92,0-1.5-0.05-1.71-0.16c-0.22-0.11-0.46-0.47-0.73-1.09l-3.67-8.05h-1.44l0.11,0.68v7.37
				h0.03c0,0.62-0.07,0.98-0.2,1.09c-0.14,0.11-0.59,0.16-1.37,0.16h-0.16V208.5l3.1-0.27c1.88,0,3.1,0.36,3.64,1.09
				c0.22,0.29,0.38,0.54,0.49,0.76c0.11,0.22,0.19,0.55,0.24,1.01c0.07,0.6,0.11,1.33,0.11,2.19c0,0.86-0.01,1.51-0.04,1.96
				c-0.03,0.44-0.1,0.91-0.2,1.39c-0.11,0.48-0.26,0.86-0.46,1.13c-0.45,0.63-1.16,0.99-2.12,1.06l4.51,9.32H103.15z M97.08,217.28
				c0.92,0,1.64-0.17,2.15-0.52c0.31-0.24,0.49-0.83,0.54-1.79c0.02-0.29,0.03-0.77,0.03-1.44c0-0.67-0.01-1.15-0.03-1.44
				c-0.02-0.29-0.07-0.63-0.15-1.01s-0.21-0.64-0.39-0.79c-0.51-0.34-1.22-0.52-2.15-0.52H95.7v6.82l-0.11,0.68H97.08z"/>
		</g>
		<g>
			<path class="st0" d="M108.01,228.13h-0.14c-0.78,0-1.24-0.05-1.37-0.16c-0.14-0.11-0.2-0.47-0.2-1.09v-18.32h0.14
				c0.78,0,1.24,0.05,1.37,0.16c0.14,0.11,0.2,0.47,0.2,1.09V228.13z"/>
		</g>
		<g>
			<path class="st0" d="M118.83,219.78c0-0.78,0.05-1.24,0.16-1.37c0.11-0.14,0.47-0.2,1.09-0.2h0.46v9.65
				c-0.27,0.04-0.67,0.1-1.2,0.19c-1.05,0.18-1.88,0.27-2.47,0.27c-0.6,0-1.11-0.06-1.52-0.18c-0.42-0.12-0.77-0.26-1.07-0.43
				c-0.3-0.17-0.57-0.43-0.8-0.79c-0.24-0.35-0.43-0.67-0.58-0.96c-0.15-0.29-0.29-0.71-0.39-1.26c-0.11-0.55-0.19-1.01-0.24-1.37
				c-0.05-0.36-0.1-0.9-0.12-1.62c-0.03-0.72-0.04-1.27-0.04-1.67v-3.51c0-1.38,0.03-2.3,0.1-2.77c0.06-0.47,0.13-0.97,0.2-1.48
				c0.07-0.52,0.17-0.91,0.29-1.18c0.12-0.27,0.26-0.59,0.42-0.95c0.16-0.36,0.36-0.64,0.58-0.83c0.23-0.19,0.48-0.38,0.77-0.58
				c0.54-0.33,1.3-0.49,2.28-0.49l3.26,0.54c0,0.53-0.1,0.85-0.3,0.98c-0.2,0.13-0.4,0.19-0.61,0.19c-0.21,0-0.36,0-0.45,0
				l-1.9-0.16c-0.76,0-1.32,0.23-1.69,0.68c-0.22,0.24-0.4,0.47-0.54,0.71c-0.15,0.24-0.26,0.59-0.34,1.06
				c-0.08,0.47-0.15,0.87-0.2,1.21c-0.05,0.34-0.1,0.82-0.12,1.47c-0.03,0.64-0.04,1.16-0.04,1.54v3.48c0,1.38,0.04,2.32,0.12,2.81
				c0.08,0.5,0.16,0.99,0.24,1.47c0.08,0.48,0.19,0.85,0.34,1.1c0.14,0.25,0.33,0.51,0.54,0.76c0.38,0.47,0.94,0.71,1.69,0.71
				c0.56,0,1.3-0.09,2.2-0.27l-0.11-0.68V219.78z"/>
		</g>
		<g>
			<path class="st0" d="M132.56,228.13h-0.11c-0.78,0-1.24-0.05-1.37-0.16c-0.14-0.11-0.2-0.47-0.2-1.09v-7.88l0.11-0.68h-5.19
				l0.11,0.68v7.88c0,0.62-0.07,0.98-0.2,1.09c-0.14,0.11-0.59,0.16-1.37,0.16h-0.11v-19.57h0.11c0.78,0,1.24,0.05,1.37,0.16
				c0.14,0.11,0.2,0.47,0.2,1.09v6.28l-0.11,0.68h5.19l-0.11-0.68v-7.53h0.11c0.78,0,1.24,0.05,1.37,0.16
				c0.14,0.11,0.2,0.47,0.2,1.09V228.13z"/>
		</g>
		<g>
			<path class="st0" d="M138.43,228.13h-0.22v-17.45l0.11-0.68h-3.04v-1.44h7.69V210h-3.07l0.11,0.68v16.2
				c0,0.62-0.07,0.98-0.2,1.09C139.67,228.07,139.21,228.13,138.43,228.13z"/>
		</g>
		<g>
			<path class="st0" d="M154.03,228.13h-0.11c-0.78,0-1.24-0.05-1.37-0.16c-0.14-0.11-0.2-0.47-0.2-1.09v-7.88l0.11-0.68h-5.19
				l0.11,0.68v7.88c0,0.62-0.07,0.98-0.2,1.09c-0.14,0.11-0.59,0.16-1.37,0.16h-0.11v-19.57h0.11c0.78,0,1.24,0.05,1.37,0.16
				c0.14,0.11,0.2,0.47,0.2,1.09v6.28l-0.11,0.68h5.19l-0.11-0.68v-7.53h0.11c0.78,0,1.24,0.05,1.37,0.16
				c0.14,0.11,0.2,0.47,0.2,1.09V228.13z"/>
		</g>
		<g>
			<path class="st0" d="M166.41,225.99c-0.64,1.55-1.91,2.32-3.79,2.32c-1.88,0-3.15-0.77-3.81-2.32c-0.65-1.55-0.98-4.15-0.98-7.8
				c0-3.65,0.33-6.22,0.98-7.72c0.65-1.5,1.92-2.24,3.81-2.24c1.88,0,3.15,0.75,3.79,2.24c0.64,1.5,0.96,4.07,0.96,7.72
				C167.38,221.84,167.05,224.44,166.41,225.99z M162.62,226.77c1.14,0,1.92-0.69,2.32-2.08c0.41-1.39,0.61-3.55,0.61-6.48
				c0-2.83-0.19-4.9-0.57-6.22c-0.43-1.47-1.22-2.2-2.36-2.2c-1.14,0-1.92,0.68-2.34,2.03c-0.42,1.35-0.63,3.23-0.63,5.65
				s0.07,4.22,0.22,5.4C160.2,225.46,161.12,226.77,162.62,226.77z"/>
		</g>
		<g>
			<path class="st0" d="M178.19,220.05v-11.5h0.19c0.78,0,1.24,0.05,1.37,0.16c0.14,0.11,0.2,0.47,0.2,1.09v10.25
				c0,1.4-0.01,2.42-0.04,3.06c-0.03,0.64-0.11,1.38-0.26,2.22c-0.15,0.83-0.37,1.41-0.68,1.74c-0.78,0.83-1.93,1.25-3.45,1.25
				s-2.54-0.3-3.04-0.9c-0.22-0.25-0.4-0.48-0.54-0.67c-0.15-0.19-0.26-0.5-0.35-0.94c-0.09-0.43-0.16-0.79-0.22-1.07
				c-0.05-0.28-0.1-0.73-0.12-1.35c-0.03-0.62-0.04-1.1-0.04-1.47v-13.37h0.19c0.78,0,1.24,0.05,1.37,0.16
				c0.14,0.11,0.2,0.47,0.2,1.09v10.25c0,0.13,0,0.48,0,1.05c0,0.57,0,1.06,0.01,1.47c0.01,0.41,0.04,0.91,0.08,1.5
				c0.04,0.59,0.12,1.01,0.22,1.25c0.1,0.24,0.24,0.5,0.42,0.77c0.33,0.45,0.93,0.68,1.82,0.68c1.23,0,1.98-0.45,2.26-1.35
				C178.06,224.52,178.19,222.74,178.19,220.05z"/>
		</g>
		<g>
			<path class="st0" d="M191.46,221.79v0.6c0,1.81-0.16,3.09-0.49,3.83c-0.65,1.38-2.04,2.07-4.16,2.09l-3.94-0.54v-1.52l3.97,0.27
				c1.23,0,2.02-0.27,2.36-0.82c0.13-0.22,0.23-0.39,0.3-0.53c0.07-0.14,0.12-0.37,0.15-0.69c0.03-0.33,0.05-0.57,0.05-0.72
				c0.01-0.15,0.01-0.43,0-0.83c-0.01-0.4-0.01-0.67-0.01-0.82c0-0.89-0.8-2.02-2.39-3.4c-0.65-0.56-1.31-1.14-1.98-1.74
				c-0.67-0.6-1.24-1.27-1.7-2.01c-0.46-0.74-0.69-1.44-0.69-2.08c0-0.64,0-1.08,0.01-1.3c0.01-0.23,0.04-0.54,0.08-0.95
				c0.04-0.41,0.12-0.7,0.23-0.87c0.11-0.17,0.27-0.38,0.48-0.64c0.21-0.25,0.48-0.43,0.8-0.52c0.89-0.25,1.82-0.38,2.8-0.38
				l2.88,0.54c0,0.69-0.18,1.06-0.54,1.11c-0.15,0.02-0.36,0.02-0.65,0l-1.52-0.16c-1.3,0-2.11,0.28-2.42,0.84
				c-0.18,0.29-0.29,0.57-0.34,0.84c-0.05,0.27-0.07,0.66-0.07,1.16c0,0.5,0.17,1.01,0.5,1.52c0.34,0.52,0.76,0.99,1.26,1.41
				c0.51,0.43,1.05,0.89,1.63,1.4c0.58,0.51,1.12,0.99,1.63,1.45c0.51,0.46,0.93,1,1.26,1.6
				C191.29,220.57,191.46,221.18,191.46,221.79z"/>
		</g>
		<g>
			<path class="st0" d="M201.95,228.13h-7.42v-19.57h7.15V210h-5.46l0.11,0.68v5.41l-0.11,0.68h5.08v1.55h-5.08l0.11,0.68v6.9
				l-0.11,0.68h5.74V228.13z"/>
		</g>
	</g>
	<g>
		<g>
			<path class="st1" d="M88.85,239.49v-2.77v-0.1c0-1.24-0.04-2-0.11-2.28c-0.08-0.28-0.31-0.43-0.72-0.43l-1.17,0.39l0.05,0.31
				v5.46c-0.36,0-0.57-0.03-0.63-0.08c-0.06-0.05-0.09-0.22-0.09-0.5l-0.01-2.77c0-0.03,0-0.15,0-0.35c0-0.2,0-0.37,0-0.51
				s0-0.28-0.01-0.41c0-0.13-0.01-0.3-0.03-0.52c-0.01-0.22-0.04-0.37-0.07-0.46c-0.03-0.09-0.08-0.19-0.14-0.3
				c-0.1-0.18-0.29-0.26-0.58-0.26l-1.18,0.44l0.05,0.31v5.41c-0.37,0-0.58-0.03-0.65-0.08c-0.06-0.05-0.09-0.22-0.09-0.5v-6.16
				c0.37,0,0.58,0.01,0.65,0.04c0.06,0.03,0.09,0.14,0.09,0.33l1.13-0.46c0.6,0,1.05,0.18,1.33,0.53l1.34-0.53
				c0.76,0,1.21,0.18,1.36,0.53c0.15,0.36,0.22,1.34,0.22,2.95v3.34c-0.38,0-0.6-0.03-0.66-0.08
				C88.88,239.94,88.85,239.78,88.85,239.49z"/>
		</g>
		<g>
			<path class="st1" d="M97.26,236.67v-3.34c0.37,0,0.58,0.02,0.65,0.07c0.06,0.05,0.09,0.22,0.09,0.51v2.73
				c0,0.97,0.03,1.63,0.08,1.99c0.05,0.36,0.14,0.59,0.25,0.7c0.11,0.11,0.27,0.16,0.46,0.16l1.24-0.58l-0.06-0.31v-5.27
				c0.37,0,0.58,0.02,0.65,0.07c0.06,0.05,0.09,0.22,0.09,0.51v6.16c-0.37,0-0.58-0.02-0.65-0.06c-0.06-0.04-0.09-0.19-0.09-0.44
				l-1.13,0.59c-0.53,0-0.94-0.16-1.24-0.49c-0.19-0.22-0.3-0.77-0.33-1.66C97.26,237.74,97.26,237.29,97.26,236.67z"/>
		</g>
		<g>
			<path class="st1" d="M110.82,239.74c-0.1,0.13-0.23,0.22-0.4,0.28c-0.17,0.06-0.37,0.09-0.61,0.09c-0.24,0-0.74-0.06-1.49-0.19
				v-0.66c0.03,0,0.24,0.02,0.63,0.06c0.39,0.04,0.68,0.06,0.87,0.06c0.47,0,0.7-0.43,0.7-1.3c0-0.06,0-0.12,0-0.18
				c-0.01-0.27-0.27-0.6-0.78-0.98c-0.51-0.39-0.89-0.73-1.13-1.02c-0.24-0.29-0.36-0.59-0.36-0.89c0-0.3,0-0.51,0.01-0.63
				c0.01-0.12,0.04-0.26,0.09-0.44c0.05-0.18,0.13-0.3,0.23-0.38c0.26-0.21,0.65-0.31,1.18-0.31l1.19,0.18
				c0,0.37-0.15,0.55-0.45,0.55c-0.06,0-0.12,0-0.18-0.01l-0.51-0.08c-0.41,0-0.66,0.09-0.75,0.28c-0.08,0.16-0.11,0.39-0.11,0.7
				c0,0.31,0.33,0.72,0.98,1.24c0.3,0.23,0.53,0.41,0.68,0.54c0.15,0.13,0.31,0.31,0.45,0.53c0.15,0.22,0.22,0.43,0.22,0.63
				c0,0.21,0,0.38-0.01,0.53c-0.01,0.15-0.03,0.32-0.06,0.52c-0.03,0.2-0.08,0.37-0.14,0.5C111,239.49,110.92,239.62,110.82,239.74z
				"/>
		</g>
		<g>
			<path class="st1" d="M119.51,232.01c-0.11,0.11-0.25,0.17-0.41,0.17c-0.16,0-0.29-0.06-0.41-0.17c-0.11-0.11-0.17-0.25-0.17-0.41
				c0-0.16,0.06-0.3,0.17-0.4c0.11-0.1,0.25-0.16,0.41-0.16c0.16,0,0.29,0.05,0.41,0.16c0.11,0.11,0.17,0.24,0.17,0.4
				C119.68,231.76,119.62,231.9,119.51,232.01z M118.74,239.54v-6.21c0.37,0,0.58,0.02,0.65,0.07c0.06,0.05,0.09,0.22,0.09,0.51
				v6.21c-0.37,0-0.58-0.03-0.65-0.08C118.77,239.99,118.74,239.83,118.74,239.54z"/>
		</g>
		<g>
			<path class="st1" d="M127.27,236.71v-0.8c0-0.61,0.01-1,0.04-1.15c0.03-0.16,0.06-0.33,0.1-0.51c0.04-0.18,0.08-0.31,0.14-0.38
				c0.05-0.07,0.12-0.16,0.2-0.26c0.08-0.1,0.18-0.17,0.29-0.2c0.28-0.1,0.57-0.15,0.87-0.15l1.04,0.16c0,0.37-0.15,0.55-0.45,0.55
				c-0.06,0-0.12,0-0.18-0.01l-0.41-0.04c-0.43,0-0.69,0.18-0.78,0.53c-0.09,0.36-0.14,0.97-0.14,1.84c0,0.87,0,1.43,0.01,1.69
				c0.01,0.26,0.04,0.53,0.1,0.82c0.06,0.29,0.15,0.48,0.28,0.56c0.13,0.09,0.3,0.13,0.53,0.13l1.09-0.13v0.58l-1.09,0.21
				c-0.45,0-0.75-0.05-0.9-0.16c-0.15-0.11-0.26-0.2-0.34-0.27c-0.08-0.07-0.14-0.2-0.19-0.38c-0.05-0.18-0.09-0.34-0.12-0.46
				c-0.03-0.13-0.05-0.33-0.06-0.61C127.27,237.78,127.27,237.26,127.27,236.71z"/>
		</g>
		<g>
			<path class="st1" d="M148.64,239.74c-0.1,0.13-0.23,0.22-0.4,0.28c-0.17,0.06-0.37,0.09-0.61,0.09c-0.24,0-0.74-0.06-1.49-0.19
				v-0.66c0.03,0,0.24,0.02,0.63,0.06c0.39,0.04,0.68,0.06,0.87,0.06c0.47,0,0.7-0.43,0.7-1.3c0-0.06,0-0.12,0-0.18
				c-0.01-0.27-0.27-0.6-0.78-0.98c-0.51-0.39-0.89-0.73-1.13-1.02c-0.24-0.29-0.36-0.59-0.36-0.89c0-0.3,0-0.51,0.01-0.63
				c0.01-0.12,0.04-0.26,0.09-0.44c0.05-0.18,0.13-0.3,0.23-0.38c0.26-0.21,0.65-0.31,1.18-0.31l1.19,0.18
				c0,0.37-0.15,0.55-0.45,0.55c-0.06,0-0.12,0-0.18-0.01l-0.51-0.08c-0.41,0-0.66,0.09-0.75,0.28c-0.08,0.16-0.11,0.39-0.11,0.7
				c0,0.31,0.33,0.72,0.98,1.24c0.3,0.23,0.53,0.41,0.68,0.54c0.15,0.13,0.31,0.31,0.45,0.53c0.15,0.22,0.22,0.43,0.22,0.63
				c0,0.21,0,0.38-0.01,0.53c-0.01,0.15-0.03,0.32-0.06,0.52c-0.03,0.2-0.08,0.37-0.14,0.5
				C148.83,239.49,148.74,239.62,148.64,239.74z"/>
		</g>
		<g>
			<path class="st1" d="M156.67,237.21v-2.89l0.05-0.31h-0.54v-0.68h0.54l-0.05-0.44v-0.55c0.37,0,0.58,0.03,0.65,0.08
				c0.06,0.05,0.09,0.22,0.09,0.5l-0.05,0.41h1.15c0,0.31-0.03,0.5-0.08,0.57c-0.05,0.07-0.23,0.11-0.52,0.11h-0.55l0.05,0.31v2.89
				c0,0.95,0.03,1.57,0.08,1.86c0.05,0.28,0.19,0.43,0.43,0.43h0.85v0.58l-0.87,0.06c-0.58,0-0.93-0.18-1.05-0.53
				C156.73,239.24,156.67,238.45,156.67,237.21z"/>
		</g>
		<g>
			<path class="st1" d="M165.79,236.67v-3.34c0.37,0,0.58,0.02,0.65,0.07c0.06,0.05,0.09,0.22,0.09,0.51v2.73
				c0,0.97,0.03,1.63,0.08,1.99c0.05,0.36,0.14,0.59,0.25,0.7c0.11,0.11,0.27,0.16,0.46,0.16l1.24-0.58l-0.06-0.31v-5.27
				c0.37,0,0.58,0.02,0.65,0.07c0.06,0.05,0.09,0.22,0.09,0.51v6.16c-0.37,0-0.58-0.02-0.65-0.06c-0.06-0.04-0.09-0.19-0.09-0.44
				l-1.13,0.59c-0.53,0-0.94-0.16-1.24-0.49c-0.19-0.22-0.3-0.77-0.33-1.66C165.8,237.74,165.79,237.29,165.79,236.67z"/>
		</g>
		<g>
			<path class="st1" d="M176.85,238.06c-0.01-0.28-0.01-0.65-0.01-1.13c0-0.48,0-0.81,0.01-0.99c0-0.18,0.01-0.4,0.02-0.66
				c0.01-0.25,0.02-0.45,0.04-0.58c0.02-0.13,0.05-0.28,0.09-0.45c0.04-0.17,0.09-0.3,0.14-0.38c0.06-0.08,0.13-0.18,0.21-0.28
				c0.08-0.1,0.18-0.17,0.29-0.2c0.29-0.1,0.59-0.15,0.9-0.15l0.93,0.35v-2.71c0.37,0,0.58,0.03,0.64,0.08
				c0.06,0.05,0.09,0.22,0.09,0.5v8.61c-0.37,0-0.58-0.03-0.64-0.08c-0.06-0.05-0.09-0.25-0.09-0.58l-0.99,0.75
				c-0.56,0-0.99-0.15-1.29-0.46C176.98,239.48,176.87,238.94,176.85,238.06z M177.62,235.05c-0.02,0.3-0.03,0.54-0.04,0.72
				c0,0.18-0.01,0.67-0.01,1.47c0,0.8,0.04,1.34,0.11,1.64c0.18,0.38,0.44,0.59,0.8,0.61l1.03-0.56l-0.05-0.31v-4.06l0.05-0.31
				l-1.03-0.33c-0.31,0-0.52,0.1-0.64,0.31C177.72,234.47,177.64,234.75,177.62,235.05z"/>
		</g>
		<g>
			<path class="st1" d="M188.91,232.01c-0.11,0.11-0.25,0.17-0.41,0.17c-0.16,0-0.29-0.06-0.41-0.17c-0.11-0.11-0.17-0.25-0.17-0.41
				c0-0.16,0.06-0.3,0.17-0.4c0.11-0.1,0.25-0.16,0.41-0.16c0.16,0,0.29,0.05,0.41,0.16c0.11,0.11,0.17,0.24,0.17,0.4
				C189.08,231.76,189.02,231.9,188.91,232.01z M188.14,239.54v-6.21c0.37,0,0.58,0.02,0.65,0.07c0.06,0.05,0.09,0.22,0.09,0.51
				v6.21c-0.37,0-0.58-0.03-0.65-0.08C188.17,239.99,188.14,239.83,188.14,239.54z"/>
		</g>
		<g>
			<path class="st1" d="M199.29,240.01c-0.12,0.04-0.18,0.06-0.18,0.06s-0.07,0.01-0.22,0.04c-0.15,0.03-0.32,0.04-0.53,0.04
				c-0.21,0-0.39-0.01-0.55-0.04c-0.16-0.03-0.31-0.08-0.43-0.16c-0.12-0.08-0.22-0.16-0.3-0.23c-0.08-0.07-0.15-0.2-0.2-0.38
				c-0.05-0.18-0.1-0.34-0.13-0.46c-0.03-0.13-0.05-0.33-0.06-0.62c-0.01-0.29-0.02-0.52-0.03-0.71c0-0.18-0.01-0.48-0.01-0.88
				s0-0.69,0.01-0.87c0-0.18,0.01-0.41,0.03-0.7c0.01-0.29,0.03-0.49,0.06-0.61c0.03-0.12,0.07-0.27,0.13-0.45
				c0.05-0.18,0.12-0.3,0.2-0.37c0.08-0.07,0.18-0.14,0.31-0.21c0.19-0.13,0.45-0.2,0.78-0.2c0.33,0,0.57,0.01,0.72,0.04
				c0.15,0.03,0.28,0.06,0.4,0.09c0.12,0.03,0.22,0.1,0.3,0.21c0.08,0.1,0.15,0.19,0.21,0.26c0.06,0.07,0.1,0.2,0.14,0.38
				c0.03,0.18,0.06,0.33,0.08,0.44c0.02,0.11,0.04,0.3,0.05,0.57c0.01,0.27,0.02,0.49,0.02,0.65v0.78v0.05v0.77
				c0,0.57-0.02,0.94-0.05,1.12c-0.03,0.18-0.07,0.36-0.1,0.55c-0.03,0.18-0.08,0.31-0.14,0.38c-0.06,0.07-0.13,0.16-0.21,0.26
				C199.51,239.9,199.41,239.97,199.29,240.01z M199.35,236.96v-0.43c0-1.1-0.05-1.79-0.14-2.07c-0.13-0.36-0.41-0.54-0.83-0.55
				c-0.34,0-0.57,0.09-0.69,0.26c-0.07,0.12-0.12,0.23-0.16,0.33c-0.04,0.1-0.07,0.28-0.09,0.53c-0.03,0.37-0.04,0.72-0.04,1.07
				c0,0.34,0,0.69,0,1.04c0,0.35,0,0.65,0.01,0.9c0.01,0.25,0.04,0.52,0.11,0.8c0.06,0.28,0.16,0.46,0.29,0.55
				c0.13,0.08,0.3,0.13,0.5,0.13s0.36-0.02,0.46-0.06c0.11-0.04,0.2-0.11,0.27-0.21c0.07-0.1,0.13-0.21,0.16-0.31
				c0.04-0.1,0.06-0.27,0.08-0.5C199.34,238.09,199.35,237.6,199.35,236.96z"/>
		</g>
	</g>
	<g>
		<polygon class="st0" points="141.82,206.41 141.69,206.38 141.53,206.32 141.95,205.79 		"/>
	</g>
	<g>
		<path class="st2" d="M118.95,202.28"/>
	</g>
	<g>
		<path class="st2" d="M118.95,202.28"/>
	</g>
	<g>
		<path class="st0" d="M162.97,200.64c0,0.02,0,0.04,0,0.04c0,0,0-0.01,0-0.01C162.97,200.65,162.97,200.65,162.97,200.64z"/>
	</g>
	<g>
		<path class="st3" d="M224.45,40.16"/>
	</g>
	<g>
		<path class="st3" d="M59.14,40.16"/>
	</g>
	<g>
		<path class="st4" d="M225.27,77.6c0.06,0.45-0.26,0.86-0.72,0.92l-14.5,1.8c-0.03,0-0.07,0.01-0.1,0.01
			c-0.41,0-0.76-0.31-0.82-0.72c-0.06-0.45,0.26-0.86,0.72-0.92l14.5-1.8C224.8,76.83,225.21,77.15,225.27,77.6z"/>
	</g>
	<g>
		<path class="st4" d="M224.55,97.35c0.45,0.06,0.77,0.47,0.72,0.92c-0.05,0.42-0.41,0.72-0.82,0.72c-0.03,0-0.07,0-0.1-0.01
			l-3.46-0.43c-0.45-0.05-0.77-0.47-0.72-0.92c0.06-0.45,0.47-0.77,0.92-0.72L224.55,97.35z"/>
	</g>
	<g>
		<path class="st4" d="M225.21,53.15c0.17,0.42-0.02,0.9-0.44,1.08l-5.52,2.3c-0.1,0.04-0.21,0.06-0.32,0.06
			c-0.32,0-0.63-0.19-0.76-0.51c-0.17-0.42,0.03-0.9,0.44-1.08l5.52-2.3C224.56,52.53,225.04,52.73,225.21,53.15z"/>
	</g>
	<g>
		<path class="st4" d="M224.77,121.64c0.42,0.17,0.62,0.66,0.44,1.08c-0.13,0.32-0.44,0.51-0.76,0.51c-0.1,0-0.21-0.02-0.32-0.06
			l-3.17-1.32c-0.42-0.18-0.62-0.66-0.44-1.08c0.17-0.42,0.66-0.62,1.08-0.44L224.77,121.64z"/>
	</g>
	<g>
		<path class="st4" d="M216.15,118.05c0.42,0.18,0.62,0.66,0.44,1.08c-0.13,0.32-0.44,0.51-0.76,0.51c-0.11,0-0.21-0.02-0.32-0.06
			l-11.33-4.73c-0.42-0.18-0.62-0.66-0.44-1.08c0.17-0.42,0.66-0.62,1.08-0.44L216.15,118.05z"/>
	</g>
	<g>
		<path class="st4" d="M213.27,95.96c0.45,0.06,0.77,0.47,0.72,0.92c-0.05,0.42-0.41,0.72-0.82,0.72c-0.03,0-0.07,0-0.1-0.01
			l-10.66-1.32c-0.45-0.06-0.77-0.47-0.72-0.92c0.06-0.45,0.47-0.77,0.92-0.72L213.27,95.96z"/>
	</g>
	<g>
		<path class="st4" d="M201.4,80.56c0.06,0.45-0.27,0.86-0.72,0.92l-10.15,1.26c-0.03,0-0.07,0.01-0.1,0.01
			c-0.41,0-0.77-0.31-0.82-0.72c-0.06-0.45,0.26-0.86,0.72-0.92l10.15-1.26C200.93,79.79,201.34,80.11,201.4,80.56z"/>
	</g>
	<g>
		<path class="st4" d="M200.87,63.3c0.18,0.42-0.02,0.9-0.44,1.08l-12.26,5.11c-0.1,0.04-0.21,0.06-0.32,0.06
			c-0.32,0-0.63-0.19-0.76-0.51c-0.18-0.42,0.02-0.9,0.44-1.08l12.26-5.11C200.22,62.68,200.7,62.88,200.87,63.3z"/>
	</g>
	<g>
		<path class="st4" d="M192.57,93.4c0.45,0.06,0.77,0.47,0.72,0.92c-0.05,0.42-0.41,0.72-0.82,0.72c-0.03,0-0.07,0-0.1-0.01
			l-4.09-0.51c-0.45-0.05-0.77-0.47-0.72-0.92c0.06-0.45,0.47-0.77,0.92-0.72L192.57,93.4z"/>
	</g>
	<g>
		<path class="st4" d="M189,82.1c0.06,0.45-0.26,0.86-0.72,0.92l-23.39,2.9c-0.03,0-0.07,0.01-0.1,0.01c-0.41,0-0.76-0.31-0.82-0.72
			c-0.06-0.45,0.27-0.86,0.72-0.92l23.39-2.9C188.54,81.33,188.95,81.65,189,82.1z"/>
	</g>
	<g>
		<path class="st4" d="M187.34,106.04c0.42,0.18,0.62,0.66,0.44,1.08c-0.13,0.32-0.44,0.51-0.76,0.51c-0.1,0-0.21-0.02-0.32-0.06
			l-12.28-5.12c-0.42-0.17-0.62-0.66-0.44-1.08c0.18-0.42,0.66-0.62,1.08-0.44L187.34,106.04z"/>
	</g>
	<g>
		<path class="st4" d="M185.71,69.62c0.18,0.42-0.02,0.9-0.44,1.08l-6.45,2.69c-0.1,0.04-0.21,0.06-0.32,0.06
			c-0.32,0-0.63-0.19-0.76-0.51c-0.18-0.42,0.02-0.9,0.44-1.08l6.45-2.69C185.05,69.01,185.53,69.2,185.71,69.62z"/>
	</g>
	<g>
		<path class="st4" d="M182.85,92.14c0.45,0.06,0.77,0.47,0.71,0.93c-0.06,0.41-0.41,0.72-0.82,0.72c-0.04,0-0.07,0-0.11-0.01
			l-7.18-0.96c-0.45-0.06-0.77-0.47-0.71-0.92c0.06-0.45,0.47-0.77,0.92-0.71L182.85,92.14z"/>
	</g>
	<g>
		<path class="st4" d="M162.93,89.61c0.45,0.05,0.77,0.47,0.72,0.92c-0.05,0.42-0.41,0.72-0.82,0.72c-0.04,0-0.07,0-0.1-0.01
			l-5.3-0.65c-0.45-0.06-0.77-0.47-0.72-0.92c0.06-0.45,0.47-0.77,0.92-0.72L162.93,89.61z"/>
	</g>
	<g>
		<path class="st4" d="M163.61,78.83c0.17,0.42-0.03,0.9-0.44,1.08l-5.06,2.11c-0.1,0.04-0.21,0.06-0.32,0.06
			c-0.32,0-0.63-0.19-0.76-0.51c-0.18-0.42,0.02-0.9,0.44-1.08l5.05-2.11C162.95,78.22,163.44,78.41,163.61,78.83z"/>
	</g>
	<g>
		<path class="st4" d="M162.07,85.44c0.06,0.45-0.26,0.86-0.72,0.92l-7.88,0.98c-0.03,0-0.07,0.01-0.1,0.01
			c-0.41,0-0.76-0.31-0.82-0.72c-0.06-0.45,0.26-0.86,0.72-0.92l7.88-0.98C161.61,84.67,162.01,84.99,162.07,85.44z"/>
	</g>
	<g>
		<polygon class="st5" points="157.37,144.29 157.37,145.23 157.36,145.23 157.25,144.29 		"/>
	</g>
	<g>
		<polygon class="st5" points="157.37,141.93 157.37,143.34 157.15,143.32 156.99,141.97 		"/>
	</g>
	<g>
		<polygon class="st5" points="157.13,138.78 157.13,139.44 156.7,139.4 156.64,138.83 		"/>
	</g>
	<g>
		<polygon class="st5" points="156.9,140.21 156.9,141.12 156.79,140.21 		"/>
	</g>
	<g>
		<polygon class="st5" points="156.66,136.08 156.66,137.96 156.54,137.95 156.33,136.09 		"/>
	</g>
	<g>
		<polygon class="st5" points="156.66,134.05 156.66,135.23 156.23,135.21 156.1,134.08 		"/>
	</g>
	<g>
		<polygon class="st5" points="156.21,130.64 156.21,132.52 155.92,132.51 155.72,130.66 		"/>
	</g>
	<g>
		<polygon class="st5" points="156.21,127.84 156.21,129.25 155.55,129.22 155.4,127.88 		"/>
	</g>
	<g>
		<path class="st0" d="M154.25,89.82c-0.15,0.01-0.3,0.02-0.45,0.03c-0.01-0.17-0.02-0.34-0.03-0.5L154.25,89.82z"/>
	</g>
	<g>
		<path class="st4" d="M145.51,87.94c0,0.21-0.01,0.41-0.04,0.61l-0.93-0.01c-1.08-0.02-2.16-0.01-3.24-0.02
			c-1.08,0.01-2.16,0-3.24,0.02c-0.33,0-0.65,0.01-0.98,0.01v-0.61c0-2.33,1.89-4.22,4.22-4.22
			C143.62,83.72,145.51,85.61,145.51,87.94z"/>
	</g>
	<g>
		<path class="st4" d="M144.53,90.14l0.36,0c-0.74,1.21-2.07,2.02-3.6,2.02h-4.22v-2.03c0.33,0,0.65,0.01,0.98,0.01
			c1.08,0.02,2.16,0.02,3.24,0.02C142.37,90.16,143.45,90.16,144.53,90.14z"/>
	</g>
	<g>
		<path class="st0" d="M128.33,89.82l0.48-0.48c-0.01,0.17-0.02,0.33-0.03,0.5L128.33,89.82z"/>
	</g>
	<g>
		<path class="st4" d="M128.2,81.38c0.42,0.17,0.62,0.66,0.44,1.08c-0.13,0.32-0.44,0.51-0.76,0.51c-0.11,0-0.21-0.02-0.32-0.06
			l-10.95-4.56c-0.42-0.18-0.62-0.66-0.44-1.08c0.18-0.42,0.66-0.62,1.08-0.44L128.2,81.38z"/>
	</g>
	<g>
		<path class="st0" d="M128.36,95.2c-0.01,0.08-0.02,0.15-0.03,0.23c-0.01-0.08-0.02-0.15-0.03-0.23
			C128.33,95.2,128.34,95.2,128.36,95.2z"/>
	</g>
	<g>
		<path class="st4" d="M126.99,85.28c0.45,0.06,0.77,0.47,0.72,0.92c-0.05,0.42-0.41,0.72-0.82,0.72c-0.03,0-0.07,0-0.1-0.01
			l-6.63-0.82c-0.45-0.06-0.77-0.47-0.72-0.92c0.06-0.45,0.47-0.77,0.92-0.72L126.99,85.28z"/>
	</g>
	<g>
		<path class="st4" d="M125.39,89.99c0.06,0.45-0.26,0.86-0.72,0.92l-1.66,0.21c-0.04,0-0.07,0.01-0.1,0.01
			c-0.41,0-0.77-0.31-0.82-0.72c-0.05-0.45,0.27-0.86,0.72-0.92l1.66-0.2C124.92,89.22,125.34,89.54,125.39,89.99z"/>
	</g>
	<g>
		<path class="st4" d="M124.57,95.11c0.18,0.42-0.02,0.9-0.44,1.08l-21.75,9.07c-0.1,0.04-0.21,0.06-0.32,0.06
			c-0.32,0-0.63-0.19-0.76-0.51c-0.18-0.42,0.02-0.9,0.44-1.08l21.75-9.07C123.91,94.49,124.39,94.69,124.57,95.11z"/>
	</g>
	<g>
		<path class="st4" d="M119.95,90.67c0.05,0.45-0.27,0.86-0.72,0.92l-11.63,1.44c-0.03,0-0.07,0.01-0.1,0.01
			c-0.41,0-0.76-0.31-0.82-0.72c-0.06-0.45,0.26-0.86,0.72-0.92l11.63-1.44C119.48,89.89,119.89,90.22,119.95,90.67z"/>
	</g>
	<g>
		<path class="st4" d="M112.55,74.85c0.42,0.18,0.62,0.66,0.44,1.08c-0.13,0.32-0.44,0.51-0.76,0.51c-0.1,0-0.21-0.02-0.32-0.06
			l-24.4-10.18c-0.42-0.17-0.62-0.66-0.44-1.08c0.18-0.42,0.66-0.62,1.08-0.44L112.55,74.85z"/>
	</g>
	<g>
		<path class="st4" d="M108.29,82.97c0.45,0.06,0.77,0.47,0.72,0.92c-0.05,0.42-0.41,0.72-0.82,0.72c-0.04,0-0.07,0-0.1-0.01
			l-5.93-0.73c-0.45-0.06-0.77-0.47-0.72-0.92c0.06-0.45,0.47-0.77,0.92-0.72L108.29,82.97z"/>
	</g>
	<g>
		<path class="st4" d="M100.76,93.05c0.05,0.45-0.27,0.86-0.72,0.92l-19.72,2.45c-0.03,0-0.07,0.01-0.1,0.01
			c-0.41,0-0.77-0.31-0.82-0.72c-0.06-0.45,0.26-0.86,0.72-0.92l19.72-2.45C100.3,92.28,100.71,92.6,100.76,93.05z"/>
	</g>
	<g>
		<path class="st4" d="M95.99,107.03c0.18,0.42-0.02,0.9-0.44,1.08l-10.65,4.44c-0.1,0.04-0.21,0.06-0.32,0.06
			c-0.32,0-0.63-0.19-0.76-0.51c-0.17-0.42,0.02-0.9,0.44-1.08l10.65-4.44C95.33,106.41,95.82,106.61,95.99,107.03z"/>
	</g>
	<g>
		<path class="st4" d="M93.43,81.13c0.45,0.06,0.77,0.47,0.72,0.92c-0.05,0.42-0.41,0.72-0.82,0.72c-0.03,0-0.07,0-0.1-0.01
			l-11.6-1.44c-0.45-0.06-0.77-0.47-0.72-0.92c0.06-0.45,0.47-0.77,0.92-0.72L93.43,81.13z"/>
	</g>
	<g>
		<path class="st4" d="M84.11,62.99c0.42,0.17,0.62,0.66,0.44,1.08c-0.13,0.32-0.44,0.51-0.76,0.51c-0.11,0-0.21-0.02-0.32-0.06
			l-8.97-3.74c-0.42-0.18-0.62-0.66-0.44-1.08c0.18-0.42,0.66-0.62,1.08-0.44L84.11,62.99z"/>
	</g>
	<g>
		<path class="st4" d="M77.75,79.19c0.45,0.06,0.77,0.47,0.72,0.92c-0.05,0.42-0.41,0.72-0.82,0.72c-0.03,0-0.07,0-0.1-0.01
			l-2.77-0.34c-0.45-0.06-0.77-0.47-0.72-0.92c0.05-0.45,0.46-0.77,0.92-0.72L77.75,79.19z"/>
	</g>
	<g>
		<path class="st4" d="M77.04,95.99c0.06,0.45-0.27,0.86-0.72,0.92l-17.22,2.14c-0.04,0-0.07,0.01-0.1,0.01
			c-0.41,0-0.77-0.31-0.82-0.72c-0.05-0.45,0.27-0.86,0.72-0.92l17.22-2.14C76.58,95.22,76.99,95.54,77.04,95.99z"/>
	</g>
	<g>
		<path class="st4" d="M64.78,120.04c0.18,0.42-0.02,0.9-0.44,1.08l-4.91,2.05c-0.1,0.04-0.21,0.06-0.32,0.06
			c-0.32,0-0.63-0.19-0.76-0.51c-0.17-0.42,0.03-0.9,0.44-1.08l4.91-2.05C64.12,119.42,64.6,119.62,64.78,120.04z"/>
	</g>
	<g>
		<path class="st4" d="M64,54.6c0.42,0.18,0.62,0.66,0.44,1.08C64.31,56,64,56.19,63.68,56.19c-0.11,0-0.21-0.02-0.32-0.06
			l-4.54-1.89c-0.42-0.18-0.62-0.66-0.44-1.08c0.18-0.42,0.66-0.62,1.08-0.44L64,54.6z"/>
	</g>
	<g>
		<path class="st4" d="M61.04,77.12c0.45,0.06,0.77,0.47,0.72,0.92c-0.05,0.42-0.41,0.72-0.82,0.72c-0.03,0-0.07,0-0.1-0.01
			l-1.89-0.23c-0.45-0.05-0.77-0.47-0.72-0.92c0.06-0.45,0.47-0.77,0.92-0.72L61.04,77.12z"/>
	</g>
	<g>
		<path class="st1" d="M150.97,79.31h-19.35c0.1-0.92,0.65-1.78,1.76-2.49c5.9-3.78,7.92-9.01,7.92-9.01s2.02,5.24,7.92,9.01
			C150.32,77.52,150.86,78.39,150.97,79.31z"/>
	</g>
	<g>
		<path class="st1" d="M152.6,102.99c0,0,0.22,0,2.13,0.01s1.76-2.05,1.76-2.05s0.07-2.95,0-4.18s-1.22-1.48-1.22-1.48l-2.84,0.02
			l-0.77-5.36l2.15-0.11l0.43,5.42l0.52-6.38l-3.28-0.17l-1.14-7.9h-18.09l-1.11,7.9l-3.31,0.17l0.53,6.21l0.42-5.25l2.18,0.11
			l-0.74,5.26c0,0-0.47,0-2.14-0.01c-1.67-0.01-1.94,1.57-1.94,1.57s0.01,2.12,0,4.08c-0.01,1.97,1.39,2.14,1.39,2.14h1.79
			l-2.09,21.19c0.07,13.43,13.21,17.26,13.21,17.26c16.9,6.88,18.11,14.35,18.11,14.35L152.6,102.99z"/>
	</g>
	<g>
		<path class="st1" d="M126.26,132.94c0,0-0.3,12.25,13,17.23s19.22,11.42,19.8,16.89c0.57,5.47,3.91,33.61,3.91,33.61
			s-0.69-7.06-9.17-13.74c-8.47-6.68-31.04-7.75-29.46-28.23S126.26,132.94,126.26,132.94z"/>
	</g>
	<g>
		<path class="st4" d="M137.08,88.55h8.39c0,0,0.43-3.45-2.78-4.59C139.48,82.81,136.81,85.5,137.08,88.55z"/>
	</g>
	<g>
		<path class="st4" d="M137.08,90.13l7.82,0.01c0,0-1.22,2-3.32,2.01c-2.09,0.01-4.5,0.01-4.5,0.01V90.13z"/>
	</g>
</g>
</svg>
